<svg xmlns="http://www.w3.org/2000/svg" width="299" height="491"><g fill="#167BF7" fill-rule="nonzero" opacity=".6"><path d="M25.923 292.662c-7.05 0-13.013-2.226-17.32-6.435l-.378-.338 4.4-19.063c.427-1.838 1.988-3.145 3.881-3.145h10.647c1.893 0 3.455 1.307 3.88 3.193l5.253 24.288-.804.242c-.19.048-4.164 1.306-9.464 1.306-.048-.048-.048-.048-.095-.048zm-15.71-7.45c8.375 7.789 20.679 5.37 23.944 4.547l-4.921-22.594c-.237-1.016-1.089-1.742-2.13-1.742H16.46c-.994 0-1.893.726-2.13 1.693l-4.117 18.095z"/><path d="M23.937 290.775h-4.33c-2.56 0-4.609-1.995-4.609-4.488v-21.988c0-2.494 2.049-4.488 4.61-4.488h4.329c2.56 0 4.608 1.994 4.608 4.488v21.988c0 2.493-2.095 4.488-4.608 4.488zm-4.33-29.196c-1.583 0-2.84 1.224-2.84 2.765v21.943c0 1.541 1.257 2.765 2.84 2.765h4.33c1.582 0 2.84-1.224 2.84-2.765v-21.988c0-1.541-1.258-2.766-2.84-2.766h-4.33v.046zm258.869 31.083c-7.05 0-13.013-2.226-17.32-6.435l-.378-.338 4.401-19.063c.426-1.838 1.988-3.145 3.88-3.145h10.648c1.893 0 3.454 1.307 3.88 3.193l5.253 24.288-.805.242c-.189.048-4.164 1.306-9.464 1.306 0-.048-.047-.048-.095-.048zm-15.71-7.45c8.376 7.789 20.68 5.37 23.944 4.547l-4.921-22.594c-.237-1.016-1.088-1.742-2.13-1.742h-10.647c-.994 0-1.893.726-2.13 1.693l-4.116 18.095z"/><path d="M275.522 290.775h-4.33c-2.56 0-4.608-1.995-4.608-4.488v-21.988c0-2.494 2.048-4.488 4.609-4.488h4.33c2.56 0 4.608 1.994 4.608 4.488v21.988c0 2.493-2.095 4.488-4.609 4.488zm-4.33-29.196c-1.582 0-2.839 1.224-2.839 2.765v21.943c0 1.541 1.257 2.765 2.84 2.765h4.33c1.582 0 2.84-1.224 2.84-2.765v-21.988c0-1.541-1.258-2.766-2.84-2.766h-4.33v.046zM146.597 484.303h-.89c-46.97 0-83.309-13.815-107.894-41.069-17.936-19.855-29.55-46.64-34.56-79.655-4.075-26.739-2.904-51.886-1.218-68.322A16.821 16.821 0 0118.8 280.131h4.168c4.214 0 8.242 1.264 11.707 3.653l6.369 4.402 105.553 33.575v162.542zM18.8 281.863c-7.774 0-14.19 5.807-14.985 13.534-1.686 16.296-2.81 41.35 1.217 67.854 4.917 32.687 16.39 59.191 34.092 78.766 24.117 26.692 59.66 40.319 105.694 40.506v-159.45l-104.57-33.295-6.603-4.543c-3.138-2.2-6.884-3.324-10.724-3.324H18.8v-.047z"/><path d="M146.52 484.303h-.89V321.76l.608-.187 104.945-33.388 6.368-4.402a20.496 20.496 0 0111.708-3.653h4.168a16.82 16.82 0 0116.764 15.126c1.686 16.436 2.857 41.583-1.217 68.322-5.01 33.014-16.671 59.8-34.56 79.655-24.632 27.254-60.925 41.069-107.895 41.069zm.889-161.23v159.45c46.033-.187 81.577-13.814 105.694-40.506 17.654-19.575 29.174-46.08 34.138-78.719 4.028-26.551 2.904-51.558 1.218-67.854a15.04 15.04 0 00-14.986-13.533h-4.214c-3.84 0-7.54 1.17-10.724 3.324l-6.603 4.543-.14.047-104.383 33.248z"/><path d="M210.506 477.53c-4.88 0-9.573-2.635-11.99-7.163l-33.922-64.086c-1.673-3.188-1.999-6.792-.93-10.258a13.444 13.444 0 016.599-7.9c6.599-3.466 14.777-.925 18.262 5.636l33.923 64.087c3.486 6.56.93 14.693-5.669 18.158a13.795 13.795 0 01-6.273 1.525zm-33.97-89.223c-1.859 0-3.717.416-5.437 1.34a11.494 11.494 0 00-5.762 6.884c-.93 3.004-.65 6.146.836 8.918l33.923 64.087c3.02 5.683 10.13 7.9 15.847 4.897 5.715-3.003 7.946-10.072 4.925-15.756l-33.923-64.086c-2.09-4.02-6.18-6.284-10.409-6.284zm33.97 82.199a6.549 6.549 0 01-1.906-.277c-1.673-.509-3.02-1.617-3.81-3.142L170.867 403c-.79-1.525-.976-3.234-.465-4.898a6.274 6.274 0 013.16-3.788 6.476 6.476 0 018.736 2.68l33.923 64.086c1.673 3.142.465 7.023-2.695 8.687a6.48 6.48 0 01-3.02.739zm-33.923-75.176a4.64 4.64 0 00-2.184.555 4.658 4.658 0 00-2.277 2.772c-.372 1.201-.28 2.449.325 3.558L206.37 466.3c1.208 2.264 4.043 3.142 6.366 1.94 2.277-1.2 3.16-4.019 1.952-6.33l-33.923-64.086c-.883-1.57-2.51-2.495-4.182-2.495z"/><path d="M235.571 463.982c-4.086 0-8.079-1.8-10.803-5.307l-45.281-58.568c-4.65-5.97-3.57-14.642 2.348-19.333 2.866-2.275 6.435-3.27 10.052-2.796 3.617.474 6.858 2.274 9.113 5.212l45.28 58.569a13.548 13.548 0 012.772 10.14c-.47 3.649-2.254 6.918-5.167 9.193-2.395 1.942-5.355 2.89-8.314 2.89zm-45.328-84.346c-2.63 0-5.167.853-7.28 2.512-5.167 4.075-6.107 11.61-2.067 16.822l45.28 58.568c4.04 5.212 11.509 6.16 16.676 2.085 2.49-1.943 4.086-4.786 4.462-7.961.376-3.175-.47-6.302-2.395-8.814l-45.281-58.568a11.66 11.66 0 00-7.892-4.501 7.689 7.689 0 00-1.503-.143zm45.328 77.144a6.583 6.583 0 01-5.167-2.512l-45.28-58.568a6.48 6.48 0 01-1.316-4.88c.235-1.754 1.08-3.318 2.443-4.408a6.34 6.34 0 014.838-1.326c1.738.237 3.288 1.09 4.368 2.464l45.281 58.568c2.208 2.843 1.691 7.013-1.127 9.24-1.221.948-2.63 1.422-4.04 1.422zm-45.28-69.941a4.716 4.716 0 00-2.913.995c-.986.806-1.644 1.895-1.785 3.175a4.87 4.87 0 00.986 3.554l45.234 58.568a4.744 4.744 0 006.67.853c2.067-1.611 2.443-4.644.846-6.729l-45.281-58.568c-.799-.995-1.879-1.659-3.147-1.8-.235-.048-.423-.048-.61-.048zM90.416 481.4c-2.137 0-4.321-.508-6.273-1.57-3.206-1.663-5.53-4.48-6.599-7.898a13.358 13.358 0 01.93-10.252l33.923-64.054c3.485-6.558 11.664-9.098 18.262-5.634 6.599 3.464 9.155 11.591 5.67 18.15l-33.923 64.053c-1.673 3.187-4.508 5.496-7.947 6.558-1.347.416-2.695.647-4.043.647zm33.97-89.177c-4.229 0-8.318 2.263-10.41 6.234l-33.922 64.054c-1.44 2.771-1.766 5.912-.837 8.913.93 3.002 2.974 5.404 5.763 6.882 2.788 1.477 5.948 1.754 8.968.83 3.02-.923 5.437-2.955 6.924-5.726l33.923-64.054c3.02-5.68.79-12.792-4.926-15.748-1.766-.923-3.624-1.385-5.483-1.385zm-33.97 82.157a6.469 6.469 0 01-3.02-.739 6.268 6.268 0 01-3.16-3.787c-.511-1.662-.372-3.371.465-4.895l33.923-64.054c1.673-3.14 5.576-4.341 8.736-2.679 3.16 1.663 4.368 5.542 2.695 8.683l-33.923 64.054c-1.115 2.17-3.392 3.417-5.716 3.417zm33.97-75.138c-1.673 0-3.346.924-4.182 2.494L86.28 465.79c-.604 1.109-.697 2.356-.326 3.556.372 1.201 1.209 2.17 2.277 2.771 2.277 1.2 5.159.323 6.367-1.94l33.923-64.054c1.208-2.262.325-5.126-1.952-6.326a4.64 4.64 0 00-2.184-.555zm-88.1-46.538H21.905c-8.59 0-15.615-6.702-15.615-14.998 0-8.252 6.977-14.999 15.615-14.999h14.381v1.732H21.905c-7.594 0-13.812 5.927-13.812 13.267s6.17 13.266 13.812 13.266h14.381v1.732z"/><path d="M36.286 355.607H21.905c-8.59 0-15.615-6.712-15.615-15.021 0-8.31 6.977-14.976 15.615-14.976h14.381v1.735H21.905c-7.594 0-13.812 5.935-13.812 13.286s6.17 13.286 13.812 13.286h14.381v1.69zm23.224 74.508H45.128c-8.59 0-15.615-6.702-15.615-14.998 0-8.297 6.977-14.999 15.615-14.999H59.51v1.732H45.128c-7.594 0-13.811 5.927-13.811 13.267s6.17 13.266 13.811 13.266H59.51v1.732z"/><path d="M83.654 433.018H45.9c-8.51 0-15.42-6.702-15.42-14.999s6.91-14.998 15.467-14.998h14.246v1.732H45.948c-7.522 0-13.68 5.927-13.68 13.266 0 7.34 6.111 13.266 13.68 13.266h37.753v1.733h-.047z"/><path d="M148.572 453.338h-2.952v-.047c-36.353-.608-65.07-12.582-85.401-35.548-22.206-25.07-30.17-58.935-32.98-82.93-3.046-25.96-.797-46.306-.797-46.494l.094-.795h25.437l93.648-4.303v-.187l1.92.094 1.921-.094v.187l93.694 4.303h25.438l.094.795c0 .188 2.248 20.534-.797 46.494-2.81 23.995-10.821 57.86-32.98 82.93-20.332 23.013-49.096 34.94-85.402 35.548l-.937.047zm-1.03-1.777h1.029c36.213-.421 64.836-12.208 84.98-34.987 12.087-13.658 27.5-38.916 32.559-81.948 2.67-22.92 1.265-41.395.89-45.371h-23.845l-95.427-4.397h-.281l-.844.047-94.537 4.35H28.175c-.375 3.976-1.827 22.451.89 45.37 2.764 23.715 10.681 57.205 32.559 81.949 20.144 22.779 48.768 34.566 84.98 34.987h.937z"/><path d="M149.48 442.694h-2.804v-.047c-33.712-.562-60.364-11.706-79.254-33.105-20.62-23.367-28.008-54.88-30.627-77.216-2.805-24.162-.748-43.127-.748-43.314l.094-.796h23.706l86.876-4.027v-.187l1.824.093 1.823-.093v.187l86.876 4.027h23.66l.093.796c0 .187 2.105 19.105-.748 43.314-2.618 22.336-10.053 53.896-30.626 77.216-18.89 21.399-45.542 32.543-79.255 33.105l-.888.047zm-.981-1.78h.935c33.619-.374 60.13-11.331 78.834-32.543 11.222-12.69 25.53-36.243 30.206-76.28 2.478-21.211 1.168-38.303.794-42.096h-22.07l-88.652-4.074h-.094l-88.606 4.074H37.729c-.374 3.793-1.683 20.931.795 42.144 2.572 22.101 9.913 53.24 30.206 76.232 18.703 21.212 45.215 32.122 78.834 32.544h.935zm81.048-368.825l-1.401-1.052 11.912-16.636-7.755-7.983-15.929 12.238-1.075-1.482 17.144-13.146 9.95 10.182z"/><path d="M239.162 54.672c-2.038 0-3.713-.586-4.936-1.756-2.943-2.745-2.445-7.696-2.445-7.92l1.72.18-.86-.09.86.09c0 .044-.452 4.32 1.902 6.48 1.268 1.17 3.17 1.53 5.706 1.125l.317 1.665c-.86.136-1.585.226-2.264.226zm-74.339 226.415c-9.302 0-15.786-.14-16.35-.14-.986 0-18.932.421-39.04-.14-27.67-.796-46.04-2.95-54.496-6.414l-1.127-.468 1.315-1.592c2.82-3.417 3.853-8.051 2.772-12.358L35.63 172.013c-3.9-15.449-4.275-31.74-.987-47.094 3.524-16.713 11.51-40.681 29.362-59.78 20.249-21.722 48.671-32.723 84.517-32.723h.047c35.798 0 64.268 11.001 84.516 32.722 17.852 19.1 25.792 43.068 29.362 59.78 3.242 15.355 2.913 31.646-1.034 47.095l-22.315 87.962c-1.08 4.307-.047 8.894 2.772 12.358l1.315 1.592-1.127.468c-8.456 3.464-26.825 5.618-54.496 6.414-8.269.234-16.208.28-22.738.28zm-16.302-1.919c.704 0 70.469 1.639 91.75-5.992a15.934 15.934 0 01-2.912-13.623l22.315-87.962c3.853-15.167 4.181-31.177.987-46.251-3.477-16.525-11.37-40.119-28.893-58.938-19.919-21.347-47.919-32.16-83.2-32.16-35.329 0-63.329 10.813-83.201 32.16-17.57 18.82-25.416 42.46-28.893 58.938-3.194 15.074-2.865 31.084.987 46.251l22.315 87.962c1.222 4.729.094 9.784-2.912 13.623 21.046 7.584 90.247 6.039 91.657 5.992-.047 0-.047 0 0 0v.14-.14z"/><path d="M44.783 205.577H28.545v-90.912h16.857v.046c6.666 1.292 10.237 23.985 10.237 45.433s-3.571 44.095-10.237 45.433v.046h-.19c-.144-.046-.287-.046-.43-.046zm-1.19-1.845l1.142.138h.095c1.62 0 4.095-3.228 6.143-12.361 1.857-8.349 2.904-19.51 2.904-31.365 0-11.854-1.047-22.97-2.904-31.365-2.048-9.132-4.476-12.361-6.143-12.361h-.095l-1.143.138v-.184H30.355v87.452h13.237v-.092z"/><path d="M29.513 205.623c-6.91 0-10.644-23.431-10.644-45.479s3.735-45.479 10.644-45.479c6.91 0 10.644 23.431 10.644 45.479s-3.735 45.479-10.644 45.479zm0-89.16c-1.587 0-4.015 3.23-6.022 12.362-1.821 8.349-2.848 19.511-2.848 31.365s1.027 22.97 2.848 31.365c2.007 9.133 4.435 12.361 6.022 12.361 1.587 0 4.015-3.228 6.022-12.361 1.82-8.349 2.848-19.51 2.848-31.365 0-11.854-1.027-22.97-2.848-31.365-2.007-9.132-4.388-12.361-6.022-12.361z"/><path d="M28.904 200.785c-.427 0-.853-.186-1.09-.558-2.133-2.977-9.242-13.86-12.322-28.65-3.981-19.067.19-36.74 12.322-52.506a1.337 1.337 0 011.327-.512c.521.093.9.465 1.042.977 1.849 6.65 10.569 41.81 0 80.272a1.369 1.369 0 01-1.09.977h-.19zm-.19-79.9c-11.374 15.161-15.213 32.09-11.421 50.32 2.748 13.349 8.91 23.394 11.469 27.161 9.62-36.136 2.132-69.157-.048-77.482z"/><path d="M14.998 155.306h22.256v1.935H14.998zm18.36 23.224l-17.93-15.253c-.376-.33-.517-.894-.376-1.365.188-.47.61-.8 1.126-.8h21.076v1.788H17.727l16.758 14.217-1.127 1.412z"/><path d="M18.869 176.594h18.385v1.935H18.869zm12.596 16.45l-11.28-10.658a1.063 1.063 0 01-.248-1.235c.198-.412.644-.687 1.138-.687h16.179v1.739H22.56l10.241 9.606-1.336 1.235zm-12.596-57.091h18.385v1.935H18.869zm15.521 22.256l-17.116-15.584c-.285-.255-.427-.764-.285-1.172a.978.978 0 01.901-.662h18.396v1.936h-16.12l15.41 14.005-1.186 1.477zm14.243 2.903l-1.741-.093c1.695-36.408-6.643-46.021-6.735-46.114l1.283-1.208c.366.372 8.933 10.031 7.193 47.415zm218.919 44.511h-16.857v-.046c-6.666-1.291-10.237-23.976-10.237-45.416 0-21.44 3.571-44.078 10.238-45.415v-.046h.19c.19-.046.38-.046.571 0h16.095v90.923zm-15.047-1.752h13.237v-87.373h-13.237v.138l-1.143-.138h-.095c-1.62 0-4.095 3.273-6.143 12.357-1.857 8.345-2.904 19.503-2.904 31.352 0 11.85 1.047 22.962 2.904 31.353 2.048 9.13 4.524 12.357 6.143 12.357h.095l1.143-.138v.092z"/><path d="M265.617 205.623c-6.91 0-10.645-23.431-10.645-45.479s3.735-45.479 10.645-45.479c6.909 0 10.644 23.431 10.644 45.479s-3.735 45.479-10.644 45.479zm0-89.16c-1.588 0-4.015 3.23-6.023 12.362-1.82 8.349-2.848 19.511-2.848 31.365s1.028 22.97 2.848 31.365c2.008 9.133 4.435 12.361 6.023 12.361 1.587 0 4.014-3.228 6.022-12.361 1.82-8.349 2.848-19.51 2.848-31.365 0-11.854-1.028-22.97-2.848-31.365-2.008-9.132-4.435-12.361-6.022-12.361z"/><path d="M267.24 200.785h-.236a1.369 1.369 0 01-1.09-.977c-10.569-38.462-1.849-73.575 0-80.272.142-.512.521-.837 1.042-.977.522-.093.996.093 1.327.512 12.133 15.766 16.303 33.439 12.322 52.507-3.08 14.79-10.189 25.672-12.322 28.649-.19.325-.616.558-1.042.558zm.19-79.9c-2.227 8.324-9.668 41.345 0 77.481 2.56-3.767 8.673-13.812 11.47-27.16 3.743-18.231-.095-35.16-11.47-50.322z"/><path d="M258.843 155.306h22.256v1.935h-22.256zm3.891 23.224l-1.125-1.37 16.736-14.255h-19.502v-1.793h21.05c.515 0 .937.33 1.124.802a1.19 1.19 0 01-.375 1.369l-17.908 15.246z"/><path d="M259.811 176.594h18.385v1.935h-18.385zm5.999 16.45l-1.307-1.23 10.014-9.618h-13.739v-1.732h15.239c.484 0 .919.274 1.113.684.193.41.096.912-.242 1.23l-11.079 10.666zm-5.032-57.091h17.417v1.935h-17.417zm.928 22.256l-1.184-1.477 15.402-14.005h-16.113v-1.936h18.388c.427 0 .758.255.9.662a1.09 1.09 0 01-.284 1.172l-17.109 15.584zm-15.209 2.903c-1.741-37.384 6.826-47.043 7.193-47.415l1.282 1.208-.64-.604.64.604c-.091.093-8.43 9.706-6.734 46.114l-1.741.093zM79.13 31.448l-5.222-10.672c-1.226-2.556-1.135-5.515.318-7.936C77.495 7.37 85.53-1.464 102.784.868c2.906.403 5.448 2.331 6.629 5.022l6.22 14.124-36.504 11.434zm18.25-29.28c-12.713 0-18.933 6.995-21.611 11.524a6.733 6.733 0 00-.273 6.367l4.54 9.371 33.28-10.447-5.448-12.42c-.954-2.153-2.951-3.678-5.267-3.992-1.907-.269-3.632-.403-5.221-.403zm144.608 287.639H56.044c-3.962 0-7.178-3.17-7.178-7.077v-3.263c0-3.906 3.216-7.077 7.178-7.077h185.944c3.962 0 7.179 3.171 7.179 7.077v3.263c0 3.906-3.217 7.077-7.179 7.077zm-185.944-15.67c-2.983 0-5.407 2.389-5.407 5.33v3.263c0 2.941 2.424 5.331 5.407 5.331h185.944c2.983 0 5.407-2.39 5.407-5.33v-3.264c0-2.941-2.424-5.33-5.407-5.33H56.044z"/><path d="M182.4 289.807h-18.385V272.39H182.4v17.417zm-16.542-1.746h14.698v-13.925h-14.698v13.925z"/><path d="M171.725 285.937H149.5v-1.82h22.225a3.016 3.016 0 003.037-3.018 3.015 3.015 0 00-3.037-3.018H149.5v-1.82h22.225c2.7 0 4.869 2.155 4.869 4.838 0 2.682-2.17 4.838-4.87 4.838zM61.445 272.39h1.935v16.45h-1.935zm4.838 0h1.935v16.45h-1.935zm5.806 0h1.935v16.45h-1.935zm78.862-28.062c-41.365 0-74.991-33.41-74.991-74.508s33.626-74.508 74.991-74.508c41.366 0 74.992 33.41 74.992 74.508 0 41.099-33.673 74.508-74.992 74.508zm0-147.245c-40.38 0-73.21 32.618-73.21 72.737 0 40.12 32.83 72.738 73.21 72.738 40.38 0 73.21-32.618 73.21-72.738s-32.83-72.737-73.21-72.737z"/><path d="M151.117 241.426c-39.318 0-71.287-32.112-71.287-71.606 0-39.493 31.97-71.605 71.287-71.605 34.357 0 63.705 24.448 70.024 58.253h15.446v26.752h-15.446c-6.319 33.757-35.667 58.206-70.024 58.206zm0-141.424c-38.335 0-69.508 31.312-69.508 69.818s31.173 69.819 69.508 69.819c33.748 0 62.535-24.166 68.433-57.5l.14-.753h15.166v-23.179H219.69l-.14-.752c-5.898-33.287-34.685-57.453-68.433-57.453z"/><path d="M236.587 158.209H223.04v-11.585c0-2.709 2.049-4.865 4.516-4.865h4.47c2.513 0 4.515 2.207 4.515 4.865v11.585h.046zm-11.778-1.906h10.01v-9.68c0-1.654-1.258-3.008-2.794-3.008h-4.469c-1.536 0-2.793 1.354-2.793 3.009v9.679h.046zm7.216 40.611h-4.469c-2.514 0-4.516-2.206-4.516-4.864v-11.586h13.547v11.586c-.046 2.658-2.095 4.864-4.562 4.864zm-7.262-14.594V192c0 1.654 1.257 3.008 2.793 3.008h4.47c1.535 0 2.792-1.354 2.792-3.009v-9.679h-10.055z"/><path d="M242.297 183.367h-7.645v-27.094h7.645c5.91 0 10.74 4.905 10.74 10.905v5.285c0 6.047-4.83 10.904-10.74 10.904zm-5.863-1.762h5.863c4.925 0 8.958-4.095 8.958-9.094v-5.286c0-5-4.033-9.094-8.958-9.094h-5.863v23.474z"/><path d="M243.845 174.659c-2.384 0-4.355-1.971-4.355-4.355 0-2.383 1.971-4.354 4.355-4.354 2.383 0 4.354 1.97 4.354 4.354 0 2.384-1.97 4.355-4.354 4.355zm0-6.967c-1.421 0-2.613 1.191-2.613 2.612s1.192 2.613 2.613 2.613c1.42 0 2.612-1.192 2.612-2.613 0-1.42-1.191-2.612-2.612-2.612zm-93.377 64.058c-31.494 0-57.091-25.598-57.091-57.091 0-31.494 25.597-57.091 57.09-57.091 31.494 0 57.091 25.597 57.091 57.09-.047 31.494-25.644 57.091-57.09 57.091zm0-112.404c-30.511 0-55.313 24.802-55.313 55.313 0 30.51 24.802 55.312 55.313 55.312 30.51 0 55.312-24.802 55.312-55.312-.047-30.464-24.848-55.313-55.312-55.313z"/><path d="M150.468 226.911c-31.494 0-57.091-25.597-57.091-57.09 0-31.494 25.597-57.091 57.09-57.091 31.494 0 57.091 25.597 57.091 57.09-.047 31.494-25.644 57.091-57.09 57.091zm0-112.356c-30.511 0-55.313 24.801-55.313 55.312 0 30.51 24.802 55.313 55.313 55.313 30.51 0 55.312-24.802 55.312-55.313-.047-30.51-24.848-55.312-55.312-55.312z"/><path d="M149.016 219.17c-27.483 0-49.833-22.35-49.833-49.833 0-27.483 22.35-49.834 49.833-49.834 27.483 0 49.834 22.35 49.834 49.834 0 27.483-22.397 49.833-49.834 49.833zm0-97.894c-26.503 0-48.06 21.557-48.06 48.06 0 26.504 21.557 48.06 48.06 48.06 26.503 0 48.06-21.556 48.06-48.06 0-26.503-21.557-48.06-48.06-48.06z"/><path d="M127.016 223.04c-6.06 0-11.795-2.331-16.038-6.621l-7.087-7.089c-8.858-8.86-8.858-23.223 0-32.083l52.078-52.09c4.29-4.29 9.977-6.621 16.038-6.621s11.796 2.331 16.038 6.622l7.087 7.088c4.29 4.29 6.62 9.98 6.62 16.042 0 6.062-2.33 11.798-6.62 16.041l-52.078 52.09c-4.289 4.29-9.977 6.621-16.038 6.621zm44.991-102.732c-5.595 0-10.863 2.145-14.78 6.109l-52.077 52.089c-8.159 8.16-8.159 21.451 0 29.612l7.087 7.088c3.916 3.917 9.184 6.109 14.78 6.109 5.594 0 10.862-2.145 14.779-6.109l52.077-52.09c3.916-3.916 6.108-9.186 6.108-14.782s-2.145-10.865-6.108-14.783l-7.086-7.088c-3.917-4.01-9.185-6.155-14.78-6.155zm-44.99 98.023a18.033 18.033 0 01-12.729-5.223l-7.086-7.089a17.882 17.882 0 01-5.269-12.73c0-4.804 1.865-9.327 5.269-12.731l52.077-52.09c3.357-3.357 7.88-5.222 12.728-5.222 4.849 0 9.325 1.865 12.728 5.222l7.087 7.089c3.357 3.357 5.222 7.88 5.222 12.73 0 4.804-1.865 9.327-5.222 12.731l-52.124 52.043c-3.357 3.404-7.88 5.27-12.682 5.27zm44.99-93.313c-4.336 0-8.392 1.678-11.47 4.71l-52.077 52.089c-6.34 6.342-6.34 16.601 0 22.943l7.087 7.089c3.03 3.03 7.133 4.71 11.47 4.71 4.335 0 8.391-1.68 11.468-4.71l52.078-52.09c3.03-3.03 4.709-7.135 4.709-11.471 0-4.337-1.679-8.394-4.709-11.472l-7.087-7.088c-3.03-3.032-7.133-4.71-11.469-4.71z"/><path d="M107.1 220.138c-2.005 0-4.06-.75-5.612-2.298-1.503-1.498-2.305-3.446-2.305-5.593 0-2.148.802-4.096 2.305-5.594l2.004-1.998 11.173 11.138-2.004 1.997a7.797 7.797 0 01-5.562 2.348zm-3.608-12.786l-.652.65a5.916 5.916 0 00-1.753 4.245 5.92 5.92 0 001.753 4.245 6.033 6.033 0 008.518 0l.652-.65-8.518-8.49z"/><path d="M106.24 213.649a.962.962 0 011.367 0 .96.96 0 010 1.366.96.96 0 01-1.366 0 .96.96 0 010-1.366"/><path d="M106.902 216.267c-.481 0-1.006-.174-1.356-.567-.743-.741-.743-1.962 0-2.748.744-.74 1.968-.74 2.756 0 .743.742.743 1.963 0 2.748a1.988 1.988 0 01-1.4.567zm0-2.224c-.087 0-.131.043-.175.087-.087.087-.087.262 0 .393.088.087.263.087.394 0 .087-.088.087-.262 0-.393-.088-.044-.131-.087-.219-.087zm65.105 8.997c-6.06 0-11.795-2.331-16.038-6.621l-52.078-52.09c-8.858-8.86-8.858-23.223 0-32.083l7.087-7.088c4.29-4.29 9.977-6.622 16.038-6.622s11.796 2.331 16.038 6.622l52.078 52.089c4.29 4.29 6.62 9.98 6.62 16.042 0 6.062-2.33 11.798-6.62 16.041l-7.087 7.089c-4.242 4.29-9.977 6.621-16.038 6.621zm-44.99-102.732c-5.596 0-10.864 2.145-14.78 6.109l-7.087 7.088c-8.159 8.16-8.159 21.451 0 29.612l52.078 52.042c3.916 3.918 9.184 6.11 14.78 6.11 5.594 0 10.862-2.146 14.779-6.11l7.086-7.088a20.815 20.815 0 006.108-14.782c0-5.596-2.145-10.866-6.108-14.783l-52.077-52.09c-3.917-3.963-9.185-6.108-14.78-6.108zm44.99 98.023a18.032 18.032 0 01-12.728-5.223l-52.077-52.136c-6.994-6.995-6.994-18.42 0-25.415l7.086-7.089c3.357-3.357 7.88-5.222 12.728-5.222 4.849 0 9.325 1.865 12.728 5.222l52.078 52.09c3.357 3.357 5.222 7.88 5.222 12.73 0 4.804-1.865 9.327-5.222 12.731l-7.087 7.042a17.879 17.879 0 01-12.728 5.27zm-44.99-93.313c-4.337 0-8.393 1.678-11.47 4.71l-7.087 7.088c-6.34 6.342-6.34 16.601 0 22.943l52.078 52.09c3.03 3.03 7.133 4.71 11.47 4.71 4.335 0 8.391-1.68 11.468-4.71l7.087-7.089c3.03-3.03 4.709-7.135 4.709-11.471 0-4.337-1.679-8.394-4.709-11.472l-52.078-52.09c-3.077-3.03-7.133-4.71-11.469-4.71z"/><path d="M103.51 134.018l-2.001-2.001c-3.102-3.102-3.102-8.104 0-11.155 3.101-3.102 8.104-3.102 11.155 0l2.001 2-11.155 11.156zm3.602-13.607c-1.601 0-3.102.6-4.252 1.751a6.007 6.007 0 000 8.504l.65.65 8.504-8.503-.65-.65a5.939 5.939 0 00-4.252-1.752z"/><path d="M107.607 124.626a.96.96 0 010 1.366.96.96 0 01-1.366 0 .96.96 0 010-1.366.96.96 0 011.366 0"/><path d="M106.902 127.244c-.481 0-1.006-.174-1.356-.567-.743-.741-.743-1.962 0-2.747.744-.742 1.968-.742 2.756 0 .743.741.743 1.962 0 2.747a1.988 1.988 0 01-1.4.567zm0-2.18c-.087 0-.131.043-.175.087-.087.087-.087.262 0 .392.088.088.263.088.394 0 .087-.087.087-.261 0-.392-.088-.087-.131-.087-.219-.087zm86.984 95.074a7.93 7.93 0 01-5.612-2.305l-2.004-2.004 11.173-11.174 2.005 2.005c1.503 1.503 2.304 3.457 2.304 5.611 0 2.105-.801 4.109-2.304 5.612a8.11 8.11 0 01-5.562 2.255zm-4.91-4.36l.651.652a6.018 6.018 0 008.518 0 5.95 5.95 0 001.754-4.259 5.95 5.95 0 00-1.754-4.259l-.651-.651-8.518 8.517zM223.083 156.272l11.827-4.941.687 1.639-11.828 4.941zM233.913 130.147c-11.678 0-23.543-9.954-28.242-24.792-2.652-8.404-2.652-17.138.046-24.604 2.7-7.512 7.817-12.818 14.33-14.931l22.706-7.278 6.328 20.096a41.721 41.721 0 015.35 11.035 41.716 41.716 0 011.955 12.114l6.328 20.096-22.706 7.278c-1.954.705-4.048.986-6.095.986zm7.677-69.351l-20.984 6.761c-6.002 1.925-10.701 6.856-13.214 13.852-2.559 7.043-2.559 15.4 0 23.43 5.212 16.528 19.635 26.717 32.15 22.679l21.031-6.762-5.909-18.64v-.141a39.147 39.147 0 00-1.907-11.692 41.024 41.024 0 00-5.165-10.658l-.093-.094-5.909-18.735z"/><path d="M236.932 128.212c-4.732 0-9.604-1.59-14.149-4.723-6.465-4.488-11.525-11.549-14.195-19.965-2.67-8.37-2.67-17.067.046-24.502 2.718-7.481 7.871-12.765 14.43-14.869l17.569-5.61 11.619 18.282c2.295 3.32 4.122 7.06 5.434 11.035 1.265 4.02 1.968 8.089 1.968 12.203l1.124 21.556-17.568 5.611c-2.062.655-4.17.982-6.278.982zm2.951-67.519l-16.257 5.19c-6.043 1.917-10.775 6.827-13.305 13.794-2.577 7.014-2.577 15.337 0 23.332 2.577 7.996 7.355 14.776 13.54 19.03 6.09 4.21 12.79 5.472 18.833 3.555l16.257-5.19-1.03-20.247c-.047-3.928-.656-7.855-1.921-11.69-1.218-3.834-2.999-7.387-5.2-10.614l-10.917-17.16z"/><path d="M255.51 123.374c-11.797 0-23.783-9.883-28.53-24.615-2.68-8.344-2.68-17.015.046-24.428 2.727-7.458 7.897-12.726 14.477-14.824 6.628-2.098 13.867-.746 20.447 3.776 6.487 4.475 11.563 11.515 14.242 19.906 2.68 8.345 2.68 17.016-.047 24.428-2.726 7.459-7.896 12.727-14.477 14.824-2.021.653-4.09.933-6.157.933zm-7.755-62.981c-1.927 0-3.854.28-5.735.885-6.063 1.912-10.81 6.807-13.349 13.753-2.585 6.992-2.585 15.29 0 23.262 4.513 13.986 15.747 23.403 26.793 23.403 1.927 0 3.807-.28 5.687-.886 6.064-1.912 10.81-6.806 13.35-13.753 2.584-6.992 2.584-15.29 0-23.262-2.586-7.972-7.38-14.731-13.585-18.974-4.183-2.937-8.743-4.428-13.161-4.428z"/><path d="M254.788 118.536c-4.049 0-8.238-1.407-12.101-4.08-5.539-3.891-9.867-9.987-12.148-17.207-4.748-15.004.838-30.243 12.427-33.994 5.679-1.829 11.869-.656 17.5 3.282 5.54 3.892 9.868 9.987 12.149 17.208 2.28 7.22 2.28 14.723 0 21.1-2.327 6.47-6.75 11.018-12.381 12.847-1.862.562-3.63.844-5.446.844zm-6.516-54.343a15.56 15.56 0 00-4.84.75c-10.659 3.423-15.732 17.677-11.264 31.743 2.188 6.846 6.237 12.66 11.45 16.317 5.166 3.61 10.798 4.689 15.918 3.048 5.12-1.642 9.123-5.815 11.264-11.77 2.187-6 2.187-13.128 0-19.973-2.188-6.846-6.237-12.66-11.45-16.317-3.538-2.485-7.354-3.798-11.078-3.798z"/><path d="M254.788 118.536c-4.049 0-8.238-1.407-12.101-4.08-5.539-3.891-9.867-9.987-12.148-17.207-4.748-15.004.838-30.243 12.427-33.994 5.679-1.829 11.869-.656 17.5 3.282 5.54 3.892 9.868 9.987 12.149 17.208 2.28 7.22 2.28 14.723 0 21.1-2.327 6.47-6.75 11.018-12.381 12.847-1.862.562-3.63.844-5.446.844zm-6.516-54.343a15.56 15.56 0 00-4.84.75c-10.659 3.423-15.732 17.677-11.264 31.743 2.188 6.846 6.237 12.66 11.45 16.317 5.166 3.61 10.798 4.689 15.918 3.048 5.12-1.642 9.123-5.815 11.264-11.77 2.187-6 2.187-13.128 0-19.973-2.188-6.846-6.237-12.66-11.45-16.317-3.538-2.485-7.354-3.798-11.078-3.798z"/><path d="M256.29 117.568l-.564-1.691c10.465-3.336 14.735-16.21 10.183-30.634-2.205-7-6.006-12.78-10.699-16.35-4.786-3.618-9.995-4.652-15.157-3.007l-.563-1.692c5.631-1.785 11.59-.61 16.753 3.29 4.974 3.758 9.01 9.866 11.308 17.242 4.928 15.364.188 29.177-11.262 32.842zm-47.3-7.741l-.576-1.66 13.244-4.245c.576-.184 1.008-.507 1.247-1.015.24-.461.288-1.015.144-1.568a2.177 2.177 0 00-1.055-1.2c-.48-.23-1.056-.276-1.632-.138l-13.292 3.69-.48-1.66 13.244-3.645c.96-.276 2.064-.23 2.975.231a3.792 3.792 0 011.968 2.214c.336.97.24 1.984-.24 2.907a4.027 4.027 0 01-2.303 1.891l-13.244 4.198z"/><path d="M228.619 93.627l43.38-13.8.538 1.692L229.16 95.32zM230.95 100.92l43.38-13.8.54 1.693-43.38 13.8zM169.82 283.034c-1.578 0-2.903-1.324-2.903-2.903s1.325-2.903 2.903-2.903c1.58 0 2.903 1.324 2.903 2.903s-1.324 2.903-2.903 2.903zm0-3.87c-.509 0-.967.407-.967.967s.407.968.967.968.968-.408.968-.968-.458-.968-.968-.968zM30.48 332.383c-1.578 0-2.902-1.324-2.902-2.902 0-1.58 1.324-2.903 2.903-2.903 1.578 0 2.902 1.324 2.902 2.903a2.9 2.9 0 01-2.902 2.902zm0-3.87a.966.966 0 10.001 1.935c.509 0 .967-.407.967-.967s-.407-.968-.967-.968zm46.447 102.57c-1.579 0-2.903-1.325-2.903-2.903 0-1.58 1.324-2.903 2.903-2.903s2.903 1.324 2.903 2.903a2.901 2.901 0 01-2.903 2.903zm0-3.871c-.51 0-.967.458-.967.968 0 .509.458.967.967.967.51 0 .968-.407.968-.967 0-.51-.459-.968-.968-.968zm48.383 24.191c-1.58 0-2.904-1.324-2.904-2.903s1.324-2.903 2.903-2.903 2.903 1.324 2.903 2.903-1.324 2.903-2.903 2.903zm0-3.87c-.51 0-.969.458-.969.967 0 .51.459.968.968.968.51 0 .968-.408.968-.968 0-.51-.459-.968-.968-.968z"/><path d="M100.15 279.163h67.735v1.935H100.15z"/><path d="M102.086 289.807h-6.774V272.39h6.774v17.417zm-5.08-1.746h3.386v-13.925h-3.386v13.925zm-19.545-71.794H53.704V80.833c0-13.492 2.952-25.21 8.856-34.78C67.246 38.349 73.806 32 82.054 27.192c13.964-8.217 27.693-9.15 28.256-9.197l1.452-.094-14.995 33.007-.421.093c-8.529 2.381-14.292 7.75-17.15 16.06-2.156 6.256-1.735 11.905-1.735 11.951v137.255zm-22.023-1.774H75.68V79.106c-.047-.56-.375-6.163 1.827-12.559 2.062-6.069 6.889-13.912 17.947-17.133l13.402-29.505c-3.936.467-15.042 2.38-26.054 8.823-7.966 4.669-14.292 10.831-18.837 18.254-5.67 9.29-8.575 20.682-8.575 33.847v133.66h.047zm102.617-184.98h-1.628c-2.204 0-4.024-1.87-4.024-4.133V7.52c0-2.264 1.82-4.133 4.024-4.133h1.628c2.204 0 4.024 1.87 4.024 4.133v17.86c0 2.312-1.772 4.133-4.024 4.133zm-1.628-24.257c-1.198 0-2.204 1.034-2.204 2.264v17.86c0 1.23 1.006 2.263 2.204 2.263h1.628c1.198 0 2.204-1.033 2.204-2.263V7.52c0-1.23-1.006-2.264-2.204-2.264h-1.628z"/><path d="M183.392 80.798h-68.705c-10.82 0-19.952-8.015-21.17-18.397h-.14v-24.18h111.278V60.08c.047 11.43-9.554 20.719-21.263 20.719zM95.157 60.716l.047.775c.749 9.88 9.273 17.622 19.483 17.622h68.658c10.772 0 19.53-8.515 19.53-18.989v-.82l-.047-.864h.047V39.952H95.157v20.764z"/><path d="M187.654 62.413h-77.23c-9.413 0-17.047-7.453-17.047-16.644v-8.321c0-9.19 7.634-16.644 17.048-16.644h77.182c9.414 0 17.048 7.453 17.048 16.644v8.321c.047 9.19-7.634 16.644-17 16.644zm-77.23-39.871c-8.43 0-15.267 6.675-15.267 14.906v8.321c0 8.23 6.838 14.906 15.268 14.906h77.182c8.43 0 15.268-6.676 15.268-14.906v-8.321c0-8.23-6.838-14.906-15.268-14.906h-77.182z"/><path d="M187.654 58.542h-77.23c-9.413 0-17.047-7.453-17.047-16.643v-8.322c0-9.19 7.634-16.643 17.048-16.643h77.182c9.414 0 17.048 7.453 17.048 16.643v8.322c.047 9.19-7.634 16.643-17 16.643zm-77.23-39.87c-8.43 0-15.267 6.675-15.267 14.905v8.322c0 8.23 6.838 14.906 15.268 14.906h77.182c8.43 0 15.268-6.676 15.268-14.906v-8.322c0-8.23-6.838-14.906-15.268-14.906h-77.182z"/><path d="M150.951 53.704c-13.015 0-23.677-1.608-30.785-4.641-8.54-3.63-10.34-8.409-10.34-11.809 0-3.354 1.8-8.179 10.34-11.809 7.108-3.033 17.77-4.64 30.785-4.64 13.016 0 23.678 1.607 30.786 4.64 8.539 3.63 10.34 8.409 10.34 11.809 0 3.354-1.801 8.179-10.34 11.809-7.108 3.033-17.724 4.64-30.786 4.64zm0-31.108c-29.031 0-39.37 7.582-39.37 14.658s10.339 14.658 39.37 14.658c29.032 0 39.371-7.582 39.371-14.658.046-7.076-10.339-14.658-39.37-14.658z"/><path d="M196.914 36.286h-1.76v-2.238c-5.603-1.073-44.226-7.88-88.406 0v2.192h-1.76v-3.638l.742-.14c48.208-8.766 90.073-.093 90.49 0l.694.14v3.684z"/><path d="M133.05 21.772h1.935v32.9h-1.935zm-5.806 0h1.935v32.9h-1.935zm44.512 0h1.935v32.9h-1.935zm-5.806 0h1.935v32.9h-1.935zm-17.141 52.252c-2.35 0-4.516-1.176-5.714-3.167l-5.207-8.507 1.52-.905 5.208 8.507c.921 1.538 2.58 2.398 4.331 2.353 1.797-.045 3.364-.996 4.24-2.58l4.469-8.28 1.52.814-4.47 8.281c-1.151 2.127-3.27 3.394-5.713 3.484h-.184zM112.73 61.445h1.935v11.612h-1.935zm4.838 0h1.935v11.612h-1.935zM77.273 23.707l-1.313-1.22c.14-.147 12.997-15.083 35.802-15.23v1.855c-22.007.147-34.348 14.449-34.489 14.595zm.622-7.741c0 .542-.426.968-.968.968s-.967-.426-.967-.968.425-.968.967-.968.968.426.968.968m5.805-2.903c0 .542-.425.968-.967.968s-.968-.426-.968-.968.426-.968.968-.968.968.426.968.968m2.835-2.299c.192.498-.038 1.073-.536 1.264-.498.192-1.073-.038-1.264-.536-.192-.498.038-1.073.536-1.265.498-.191 1.073.039 1.264.537M210.394 53.34c.192.498-.038 1.073-.536 1.264-.499.192-1.073-.038-1.265-.536-.191-.498.038-1.073.537-1.265.498-.191 1.072.039 1.264.537m0 6.784c.192.494-.038 1.064-.536 1.254-.499.19-1.073-.038-1.265-.532-.191-.494.038-1.064.537-1.254.498-.228 1.072.038 1.264.532"/><path d="M149.433 68.833c.191.494-.039 1.064-.537 1.254-.498.19-1.072-.038-1.264-.532-.192-.494.038-1.064.536-1.254a.935.935 0 011.265.532m52.252 38.706c.192.494-.038 1.064-.536 1.254-.498.19-1.073-.038-1.265-.532-.191-.494.039-1.065.537-1.255a.934.934 0 011.264.533M89.44 71.736c.19.494-.04 1.064-.537 1.254-.498.19-1.073-.038-1.265-.532-.191-.494.039-1.064.537-1.254.498-.228 1.073.038 1.264.532M72.99 206.227c.191.498-.039 1.072-.537 1.264-.498.192-1.073-.038-1.264-.536-.192-.498.038-1.073.536-1.265.536-.191 1.073.039 1.264.537m.001-4.839c.191.499-.039 1.073-.537 1.265-.498.191-1.073-.038-1.264-.537-.192-.498.038-1.072.536-1.264.536-.192 1.073.038 1.264.536M48.798 307.829c.192.498-.038 1.072-.536 1.264-.498.192-1.073-.038-1.264-.536-.192-.499.038-1.073.536-1.265.498-.191 1.073.038 1.264.537m0-4.839c.192.498-.038 1.073-.536 1.265-.498.191-1.073-.039-1.264-.537-.192-.498.038-1.072.536-1.264.498-.192 1.073.038 1.264.536m58.059-299c.191.498-.039 1.073-.537 1.265-.498.191-1.073-.039-1.264-.537-.192-.498.038-1.072.536-1.264.498-.192 1.073.038 1.265.536m-6.774.968c.192.498-.038 1.073-.536 1.264-.498.192-1.073-.038-1.265-.536-.191-.498.039-1.073.537-1.264.498-.192 1.073.038 1.264.536m-3.87.968c.191.498-.039 1.072-.537 1.264-.498.192-1.073-.038-1.264-.536-.192-.498.038-1.073.536-1.265.498-.191 1.073.039 1.265.537m-3.871 2.903c.192.498-.038 1.072-.536 1.264-.498.192-1.073-.038-1.265-.536-.191-.499.039-1.073.537-1.265.498-.191 1.073.038 1.264.537M56.864 260.778l-1.314-14.93c-1.078-2.652-1.735-5.49-2.016-8.373-.235-2.93-.094-5.815.516-8.605l-1.314-14.932 17.167-1.488c4.971-.419 9.802 1.628 13.695 5.814 3.8 4.094 6.192 9.815 6.754 16.001.563 6.233-.844 12.233-3.846 16.931-3.095 4.791-7.504 7.629-12.476 8.094l-17.166 1.488zm-2.205-45.258l1.173 13.443-.047.14a28.031 28.031 0 00-.516 8.186c.235 2.79.891 5.488 1.923 8l.047.14 1.172 13.442 15.385-1.349c4.409-.372 8.348-2.977 11.116-7.256 2.814-4.372 4.127-10 3.611-15.815-.516-5.814-2.767-11.163-6.285-14.977-3.47-3.768-7.833-5.629-12.241-5.256l-15.338 1.302z"/><path d="M55.2 260.778l-5.171-14.592a28.943 28.943 0 01-2.004-8.54 29.314 29.314 0 01.513-8.82l2.609-15.25 13.093-1.126c4.939-.422 9.738 1.643 13.605 5.865 3.774 4.13 6.15 9.9 6.71 16.141 1.118 13.044-6.15 24.352-16.215 25.243l-13.14 1.08zm-2.562-45.56l-2.376 13.936a29.096 29.096 0 00-.513 8.305 27.588 27.588 0 001.91 8.07l4.753 13.373 11.742-1.033c9.086-.797 15.655-11.26 14.63-23.272-.512-5.865-2.749-11.261-6.243-15.109-3.448-3.8-7.782-5.677-12.161-5.302l-11.742 1.033z"/><path d="M57.352 260.778c-4.464 0-8.788-2.067-12.322-5.92-3.766-4.135-6.137-9.914-6.695-16.163-1.116-13.062 6.137-24.385 16.18-25.278 8.788-.751 16.878 6.531 19.529 17.479l11.438-.611a6.503 6.503 0 014.882 1.832 6.756 6.756 0 012.045 4.84c0 1.832-.697 3.524-1.999 4.745a6.515 6.515 0 01-4.789 1.88l-11.159-.282c-1.72 9.82-7.997 16.774-15.901 17.478h-1.21zm-1.535-45.622c-.372 0-.744 0-1.116.047-9.066.798-15.622 11.276-14.6 23.304.512 5.874 2.744 11.277 6.231 15.13 3.44 3.805 7.765 5.685 12.136 5.309 7.253-.658 13.065-7.377 14.413-16.727l.093-.799 12.74.33c1.302.046 2.557-.47 3.487-1.363a4.898 4.898 0 001.442-3.477c0-1.363-.512-2.584-1.488-3.524-.977-.94-2.232-1.41-3.58-1.316l-12.926.705-.14-.752c-2.139-9.96-9.02-16.867-16.692-16.867z"/><path d="M55.207 254.972c-3.289 0-6.486-1.545-9.08-4.355-2.78-3.043-4.54-7.258-4.91-11.847-.418-4.59.601-9.038 2.825-12.55 2.27-3.56 5.513-5.714 9.127-6.041 7.413-.656 14.13 6.603 14.964 16.202.834 9.6-4.54 17.936-11.953 18.591-.324-.046-.648 0-.973 0zm-1.111-33.107c-.278 0-.51 0-.788.046-3.104.281-5.838 2.108-7.83 5.198-1.992 3.185-2.918 7.212-2.548 11.427.37 4.214 1.946 8.054 4.448 10.817 2.455 2.716 5.513 4.027 8.57 3.746 6.44-.562 11.12-8.054 10.378-16.624-.648-8.242-6.069-14.61-12.23-14.61zm31.056 18.593a4.336 4.336 0 01-4.354-4.354 4.336 4.336 0 014.354-4.355 4.335 4.335 0 014.354 4.355 4.336 4.336 0 01-4.354 4.354zm0-6.87a2.498 2.498 0 00-2.516 2.516c0 1.403 1.113 2.515 2.516 2.515s2.516-1.112 2.516-2.515a2.498 2.498 0 00-2.516-2.516z"/><path d="M81.765 235.62h6.773v1.935h-6.773zm-36.77 32.9c-3.679 0-6.65-3.216-6.65-7.178v-.093l1.698-17.897-16.46 1.864c-3.678 0-6.65-3.216-6.65-7.177 0-3.962 2.972-7.178 6.65-7.178h.095l16.365 1.865-1.698-17.99c0-3.962 2.971-7.178 6.65-7.178 3.679 0 6.65 3.216 6.65 7.178v.093l-1.698 17.897 16.46-1.865c3.678 0 6.65 3.216 6.65 7.178 0 3.961-2.972 7.177-6.65 7.177h-.095l-16.365-1.864 1.698 17.99c0 3.962-3.018 7.177-6.65 7.177zm-4.905-7.131c0 2.936 2.217 5.36 4.858 5.36 2.688 0 4.858-2.424 4.858-5.36l-1.745-18.223-1.18-.14 2.689-2.936.141 1.49 16.696 1.865c2.688-.046 4.81-2.423 4.81-5.406 0-2.983-2.17-5.36-4.81-5.407l-16.696 1.865-.141 1.445-2.688-2.937 1.179-.14 1.745-18.223c0-2.936-2.217-5.36-4.858-5.36-2.688 0-4.858 2.424-4.858 5.36l1.745 18.224 1.18.14-2.689 2.936-.141-1.445-16.696-1.865c-2.688.047-4.81 2.424-4.81 5.407s2.17 5.36 4.81 5.406l16.696-1.864.141-1.445 2.688 2.936-1.179.14-1.745 18.177z"/><path d="M44.995 252.07c-3.102 0-6.066-1.432-8.243-3.998-4.491-5.28-4.491-13.818 0-19.099 2.177-2.566 5.14-3.997 8.243-3.997 3.103 0 6.066 1.43 8.243 3.997 4.492 5.28 4.492 13.819 0 19.1-2.177 2.565-5.14 3.997-8.243 3.997zm0-25.219c-2.64 0-5.094 1.185-6.946 3.405-3.89 4.59-3.89 11.993 0 16.582 1.852 2.172 4.307 3.406 6.946 3.406 2.64 0 5.094-1.185 6.946-3.406 3.89-4.59 3.89-11.992 0-16.582-1.852-2.22-4.353-3.405-6.946-3.405zm-8.709 1.995l16.45 17.418"/><path d="M36.558 230.213l1.316-1.194 15.347 16.893-1.316 1.193zM52.736 228.846l-16.45 17.418"/><path d="M36.549 245.923l15.347-16.891 1.317 1.193-15.347 16.893zM264.392 366.25l-17.165-1.488c-4.971-.418-9.38-3.302-12.475-8.093-3.049-4.698-4.409-10.698-3.846-16.931.563-6.233 2.955-11.908 6.753-16.001 3.893-4.187 8.724-6.233 13.695-5.815l17.165 1.489-1.313 14.931c.61 2.79.75 5.675.516 8.605-.234 2.93-.938 5.721-2.017 8.373l-1.313 14.93zm-14.351-46.607c-3.987 0-7.926 1.861-11.115 5.303-3.565 3.814-5.769 9.163-6.285 14.978-.516 5.814.75 11.442 3.611 15.815 2.767 4.325 6.754 6.884 11.116 7.256l15.383 1.349 1.172-13.443.047-.14a26.985 26.985 0 001.923-8c.235-2.79.094-5.535-.516-8.186l-.047-.14v-.14l1.173-13.303-15.383-1.349h-1.08z"/><path d="M266.01 366.25l-13.09-1.124c-10.062-.89-17.375-12.187-16.21-25.218 1.117-13.03 10.248-22.874 20.31-21.983l13.09 1.125 2.608 15.28a28.9 28.9 0 01.513 8.766c-.28 3-.932 5.859-2.05 8.577l-5.17 14.578zm-10.295-46.638c-8.664 0-16.304 8.906-17.282 20.437-1.025 12.046 5.497 22.452 14.627 23.249l11.739 1.031 4.751-13.312a28.204 28.204 0 001.91-8.109c.233-2.812.094-5.578-.512-8.25l-2.376-13.968-11.739-1.03c-.372 0-.745-.048-1.118-.048z"/><path d="M263.945 366.25c-.418 0-.837 0-1.255-.046-7.857-.704-14.18-7.651-15.9-17.461l-11.156.281a6.592 6.592 0 01-4.789-1.877 6.569 6.569 0 01-1.999-4.741c0-1.83.744-3.567 2.046-4.835 1.348-1.267 3.068-1.924 4.881-1.83l11.436.61c2.65-10.937 10.739-18.212 19.525-17.461 10.042.892 17.34 12.204 16.178 25.253-.558 6.29-2.928 12.016-6.694 16.147-3.487 3.896-7.81 5.96-12.273 5.96zm-15.62-19.338l.093.798c1.348 9.388 7.16 16.1 14.411 16.71 4.37.376 8.647-1.502 12.134-5.304 3.533-3.849 5.718-9.247 6.23-15.114 1.022-12.063-5.533-22.484-14.598-23.282-8.09-.704-15.574 6.337-17.805 16.804l-.14.751-12.923-.704c-1.349-.094-2.604.376-3.58 1.315-.976.938-1.488 2.206-1.488 3.52s.512 2.582 1.441 3.473c.93.94 2.185 1.409 3.487 1.362l12.738-.329z"/><path d="M266 360.445c-.324 0-.602 0-.927-.047-3.661-.327-6.906-2.432-9.131-6.033-2.225-3.507-3.199-7.95-2.828-12.533.835-9.587 7.556-16.836 14.972-16.18 7.417.654 12.794 8.978 11.96 18.565-.835 9.166-7 16.228-14.045 16.228zm1.113-33.017c-6.165 0-11.542 6.36-12.284 14.591-.37 4.21.557 8.278 2.55 11.411 1.947 3.087 4.728 4.91 7.834 5.191 6.489.561 12.33-5.986 13.071-14.544.742-8.605-3.893-16.04-10.383-16.602-.278-.047-.51-.047-.788-.047zm-31.009 19.47a4.336 4.336 0 01-4.355-4.354 4.336 4.336 0 014.355-4.355 4.337 4.337 0 014.354 4.355c0 2.37-1.935 4.354-4.354 4.354zm0-6.87c-1.404 0-2.516 1.113-2.516 2.516s1.112 2.516 2.516 2.516c1.403 0 2.515-1.113 2.515-2.516s-1.112-2.516-2.515-2.516z"/><path d="M232.717 343.028h6.773v1.935h-6.773zm54.203 27.093c-.189 0-.424 0-.612-.047-1.695-.187-3.154-1.127-4.143-2.63l-.047-.093-7.86-15.31-11.816 13.854c-1.412 1.362-3.248 2.066-5.036 1.878-1.695-.188-3.154-1.127-4.143-2.63-2.024-3.1-1.412-7.795 1.365-10.52l.047-.046 13.98-11.13-10.779-13.15c-2.024-3.1-1.412-7.796 1.365-10.52 1.413-1.362 3.248-2.066 5.037-1.878 1.695.188 3.154 1.127 4.142 2.63l.047.094 7.861 15.31 11.815-13.854c1.413-1.362 3.248-2.067 5.037-1.879 1.695.188 3.154 1.127 4.142 2.63 2.024 3.1 1.413 7.796-1.365 10.52l-.047.047-13.98 11.13 10.78 13.15c2.023 3.099 1.412 7.795-1.366 10.519-1.27 1.268-2.871 1.925-4.424 1.925zm-3.201-3.569c.706 1.033 1.694 1.69 2.824 1.785 1.27.14 2.542-.329 3.577-1.362 2.166-2.113 2.684-5.824 1.13-8.219l-10.685-13.008-1.177.939.612-4.461.847 1.033 13.934-11.13c2.118-2.114 2.636-5.87 1.082-8.219-.706-1.033-1.694-1.69-2.824-1.831-1.224-.141-2.495.328-3.53 1.361l-12.24 14.324.519 1.033-3.53-.282.847-1.033-8.144-15.92c-.706-1.033-1.694-1.69-2.824-1.785-1.271-.14-2.542.33-3.578 1.362-2.165 2.114-2.683 5.824-1.13 8.219l10.686 13.008 1.177-.939-.612 4.462-.847-1.034-13.934 11.13c-2.118 2.114-2.636 5.87-1.082 8.22.706 1.032 1.694 1.69 2.824 1.83 1.224.141 2.495-.328 3.53-1.361l12.239-14.324-.518-1.033 3.53.282-.847 1.033 8.144 15.92z"/><path d="M272.355 358.51c-.238 0-.525 0-.763-.049-2.673-.195-5.154-1.56-6.968-3.852-2.29-2.876-3.293-6.922-2.72-11.115 1.002-7.703 6.92-13.505 13.22-13.017 2.672.195 5.154 1.56 6.967 3.851 2.29 2.877 3.293 6.923 2.72 11.116-.954 7.362-6.442 13.066-12.456 13.066zm2.005-26.18c-5.107 0-9.831 4.972-10.643 11.408-.477 3.656.382 7.215 2.339 9.701 1.48 1.902 3.484 2.974 5.679 3.17 5.345.438 10.404-4.68 11.31-11.409.478-3.656-.381-7.215-2.338-9.702-1.48-1.901-3.484-2.974-5.68-3.169h-.667zm9.642 13.6l-20.321-1.935"/><path d="M263.256 343.979l.14-1.77 20.709 1.64-.14 1.77zM275.293 331.416l-2.903 26.126"/><path d="M271.12 356.346l3.33-25.027 1.762.234-3.33 25.027zM56.388 126.277c-.974 0-1.624-.095-1.716-.142l.278-1.752c.046 0 5.01.805 9.14-2.698 3.804-3.266 5.752-9.182 5.752-17.465V77.902c0-.378.047-9.23 3.109-18.223 4.175-12.117 11.923-18.554 22.361-18.554v1.798c-9.789 0-16.748 5.822-20.691 17.324-3.016 8.71-3.062 17.608-3.062 17.703v26.222c0 8.899-2.134 15.241-6.403 18.886-3.108 2.745-6.727 3.219-8.768 3.219zm2.592 33.867h-2.81c-3.475 0-6.337-2.539-6.337-5.622v-19.72c0-3.084 2.862-5.622 6.336-5.622h2.81c3.475 0 6.337 2.538 6.337 5.621v19.721c0 3.129-2.862 5.622-6.336 5.622zm-2.862-29.196c-2.401 0-4.394 1.768-4.394 3.899v19.72c0 2.131 1.993 3.9 4.394 3.9h2.81c2.402 0 4.395-1.769 4.395-3.9v-19.72c0-2.131-1.993-3.9-4.395-3.9h-2.81z"/><path d="M55.109 160.144h-2.81c-3.475 0-6.336-2.539-6.336-5.622v-19.72c0-3.084 2.861-5.622 6.336-5.622h2.81c3.475 0 6.336 2.538 6.336 5.621v19.721c0 3.129-2.861 5.622-6.336 5.622zm-2.861-29.196c-2.402 0-4.395 1.768-4.395 3.899v19.72c0 2.131 1.993 3.9 4.395 3.9h2.81c2.401 0 4.394-1.769 4.394-3.9v-19.72c0-2.131-1.993-3.9-4.394-3.9h-2.81z"/><path d="M53.22 156.273a4.36 4.36 0 01-4.354-4.354c0-2.424 1.979-4.354 4.354-4.354s4.354 1.979 4.354 4.354-1.93 4.354-4.354 4.354zm0-6.877a2.534 2.534 0 00-2.523 2.523 2.534 2.534 0 002.523 2.524 2.534 2.534 0 002.524-2.524 2.502 2.502 0 00-2.524-2.523zM67.192 424.31H43.119c-3.216 0-5.865-2.759-5.865-6.108v-4.236c0-3.349 2.649-6.107 5.865-6.107h24.073c3.216 0 5.865 2.758 5.865 6.107v4.236c0 3.349-2.602 6.107-5.865 6.107zm-24.073-14.628c-2.223 0-4.068 1.92-4.068 4.235v4.236c0 2.314 1.845 4.235 4.068 4.235h24.073c2.223 0 4.067-1.92 4.067-4.235v-4.187c0-2.314-1.844-4.235-4.067-4.235H43.119v-.05z"/><path d="M67.192 428.18H43.119c-3.216 0-5.865-2.758-5.865-6.108v-4.235c0-3.35 2.649-6.107 5.865-6.107h24.073c3.216 0 5.865 2.758 5.865 6.107v4.235c0 3.35-2.602 6.108-5.865 6.108zM43.119 413.6c-2.223 0-4.068 1.921-4.068 4.236v4.235c0 2.315 1.845 4.236 4.068 4.236h24.073c2.223 0 4.067-1.92 4.067-4.236v-4.235c0-2.315-1.844-4.236-4.067-4.236H43.119z"/><path d="M63.864 424.31a4.343 4.343 0 01-4.354-4.355c0-2.424 1.95-4.355 4.354-4.355s4.354 1.93 4.354 4.355a4.342 4.342 0 01-4.354 4.354zm0-7.004c-1.451 0-2.676 1.167-2.676 2.649 0 1.481 1.18 2.648 2.676 2.648 1.452 0 2.676-1.167 2.676-2.648 0-1.482-1.18-2.649-2.676-2.649zm21.471-37.508h-4.236c-3.349 0-6.107-2.649-6.107-5.865V349.86c0-3.216 2.758-5.865 6.107-5.865h4.236c3.349 0 6.107 2.649 6.107 5.865v24.073c0 3.216-2.71 5.865-6.107 5.865zm-4.236-34.006c-2.315 0-4.236 1.845-4.236 4.068v24.073c0 2.223 1.921 4.068 4.236 4.068h4.236c2.314 0 4.235-1.845 4.235-4.068V349.86c0-2.223-1.92-4.068-4.235-4.068h-4.236z"/><path d="M81.464 379.798h-4.236c-3.349 0-6.107-2.649-6.107-5.865V349.86c0-3.216 2.758-5.865 6.107-5.865h4.236c3.35 0 6.107 2.649 6.107 5.865v24.073c0 3.216-2.758 5.865-6.107 5.865zm-4.236-34.006c-2.314 0-4.235 1.845-4.235 4.068v24.073c0 2.223 1.92 4.068 4.235 4.068h4.236c2.315 0 4.236-1.845 4.236-4.068V349.86c0-2.223-1.921-4.068-4.236-4.068h-4.236zM55.572 143.33c.192.498-.038 1.073-.536 1.265-.499.191-1.073-.039-1.265-.537-.191-.498.038-1.073.537-1.264.498-.192 1.072.038 1.264.536m22.323 44.876c-6.386 0-12.114-3.672-14.509-9.223-.47.134-.986.179-1.502.179-3.428 0-6.245-2.687-6.245-5.955 0-3.268 2.817-5.954 6.245-5.954.516 0 1.033.044 1.502.179 2.442-5.552 8.17-9.223 14.509-9.223 6.385 0 12.114 3.671 14.508 9.223.47-.135.986-.18 1.503-.18 3.427 0 6.244 2.687 6.244 5.955 0 3.268-2.817 5.955-6.244 5.955-.517 0-1.033-.045-1.503-.18-2.394 5.552-8.123 9.224-14.508 9.224zm-13.476-11.372l.329.85c1.972 5.328 7.23 8.865 13.147 8.865 5.916 0 11.175-3.582 13.147-8.865l.328-.85.845.358a4.514 4.514 0 001.69.313c2.442 0 4.461-1.925 4.461-4.253 0-2.328-2.019-4.253-4.46-4.253-.564 0-1.174.09-1.69.313l-.846.358-.328-.85c-1.972-5.328-7.231-8.865-13.147-8.865s-11.175 3.582-13.147 8.865l-.329.85-.845-.358a4.51 4.51 0 00-1.69-.313c-2.442 0-4.46 1.925-4.46 4.253 0 2.328 2.018 4.253 4.46 4.253.563 0 1.174-.09 1.69-.313l.845-.358z"/><path d="M77.895 184.335c-6.42 0-11.612-5.24-11.612-11.612s5.24-11.611 11.612-11.611c6.42 0 11.611 5.24 11.611 11.611 0 6.373-5.192 11.612-11.611 11.612zm0-21.477c-5.428 0-9.865 4.437-9.865 9.865 0 5.429 4.437 9.865 9.865 9.865s9.865-4.436 9.865-9.865c0-5.428-4.437-9.865-9.865-9.865z"/><path d="M92.31 176.594H61.545c-1.642 0-3.002-1.292-3.002-2.852v-1.07c0-1.56 1.36-2.852 3.002-2.852H92.31c1.641 0 3.001 1.293 3.001 2.852v1.07c0 1.604-1.313 2.852-3.001 2.852zm-30.72-5.036c-.656 0-1.219.535-1.219 1.159v1.07c0 .623.563 1.158 1.22 1.158h30.72c.656 0 1.22-.535 1.22-1.159v-1.07c0-.623-.564-1.158-1.22-1.158H61.59z"/><path d="M77.895 179.497c-3.737 0-6.774-3.037-6.774-6.774s3.037-6.773 6.774-6.773 6.773 3.036 6.773 6.773a6.779 6.779 0 01-6.773 6.774zm0-11.819a5.005 5.005 0 00-4.999 4.999c0 2.756 2.243 4.998 4.999 4.998s4.998-2.242 4.998-4.998a5.004 5.004 0 00-4.998-4.999zm69.185 322.43c-8.485 0-16.123-5.189-19.282-13.02a8.537 8.537 0 01-2.168.283c-4.432 0-8.062-3.632-8.062-8.067 0-4.434 3.63-8.067 8.062-8.067.754 0 1.461.095 2.168.283 3.16-7.83 10.797-13.02 19.283-13.02s16.124 5.19 19.282 13.02a8.596 8.596 0 012.169-.283c4.432 0 8.062 3.633 8.062 8.067 0 4.435-3.63 8.067-8.062 8.067a8.284 8.284 0 01-2.169-.283c-3.158 7.831-10.796 13.02-19.282 13.02zm-18.197-15.331l.33.896a18.954 18.954 0 0017.868 12.643c8.015 0 15.228-5.095 17.868-12.643l.33-.896.849.377c.754.33 1.555.472 2.357.472 3.441 0 6.27-2.83 6.27-6.275 0-3.443-2.829-6.274-6.27-6.274-.802 0-1.603.142-2.357.472l-.849.377-.33-.896a18.954 18.954 0 00-17.868-12.643c-8.015 0-15.228 5.095-17.868 12.643l-.33.896-.849-.377a5.85 5.85 0 00-2.357-.472c-3.442 0-6.27 2.83-6.27 6.274s2.828 6.275 6.27 6.275a5.85 5.85 0 002.357-.472l.849-.377z"/><path d="M147.08 483.335c-8.29 0-14.997-6.754-14.997-14.998 0-8.291 6.753-14.999 14.998-14.999 8.244 0 14.998 6.754 14.998 14.999 0 8.29-6.707 14.998-14.998 14.998zm0-28.227c-7.312 0-13.227 5.962-13.227 13.229 0 7.312 5.962 13.228 13.228 13.228s13.228-5.962 13.228-13.228c0-7.313-5.915-13.229-13.228-13.229z"/><path d="M168.755 472.69h-42.38c-1.642 0-3.001-1.328-3.001-2.933v-2.841c0-1.605 1.36-2.934 3-2.934h42.381c1.641 0 3 1.33 3 2.934v2.841c0 1.605-1.359 2.934-3 2.934zm-42.428-6.966c-.656 0-1.219.55-1.219 1.192v2.841c0 .642.563 1.192 1.22 1.192h42.38c.657 0 1.22-.55 1.22-1.192v-2.841c0-.642-.563-1.192-1.22-1.192h-42.38z"/><path d="M148.049 475.594c-5.064 0-9.193-3.902-9.193-8.732 0-4.784 4.13-8.686 9.193-8.686s9.192 3.902 9.192 8.686-4.13 8.732-9.192 8.732zm0-15.7c-4.031 0-7.374 3.113-7.374 6.968 0 3.809 3.293 6.967 7.374 6.967 4.08 0 7.373-3.112 7.373-6.967 0-3.809-3.342-6.967-7.373-6.967zm67.734-193.31c-7.747 0-14.03-6.5-14.03-14.514 0-8.015 6.283-14.515 14.03-14.515 7.748 0 14.03 6.5 14.03 14.515 0 8.014-6.282 14.514-14.03 14.514zm0-27.172c-6.755 0-12.235 5.67-12.235 12.658 0 6.988 5.48 12.657 12.235 12.657 6.756 0 12.236-5.669 12.236-12.657 0-6.989-5.48-12.658-12.236-12.658z"/><path d="M221.589 266.584c-7.748 0-14.03-6.5-14.03-14.514 0-8.015 6.282-14.515 14.03-14.515 7.748 0 14.03 6.5 14.03 14.515 0 8.014-6.282 14.514-14.03 14.514zm0-27.172c-6.756 0-12.236 5.67-12.236 12.658 0 6.988 5.48 12.657 12.236 12.657s12.236-5.669 12.236-12.657c0-6.989-5.48-12.658-12.236-12.658z"/><path d="M238.35 259.81h-18.04c-3.834 0-6.946-3.17-6.946-7.077v-3.263c0-3.906 3.112-7.077 6.946-7.077h18.04c3.834 0 6.946 3.171 6.946 7.077v3.263c0 3.907-3.112 7.078-6.946 7.078zm-18.04-15.67c-2.887 0-5.232 2.39-5.232 5.33v3.263c0 2.942 2.345 5.331 5.232 5.331h18.04c2.887 0 5.232-2.39 5.232-5.33v-3.264c0-2.94-2.345-5.33-5.232-5.33h-18.04z"/><path d="M237.071 259.81c-5.073 0-9.192-3.902-9.192-8.708 0-4.807 4.119-8.709 9.192-8.709 5.074 0 9.193 3.902 9.193 8.709 0 4.806-4.12 8.709-9.193 8.709zm0-15.656c-4.018 0-7.284 3.093-7.284 6.9 0 3.807 3.266 6.9 7.284 6.9 4.019 0 7.284-3.093 7.284-6.9 0-3.807-3.265-6.9-7.284-6.9zm-18.936 6.584c.192.498-.038 1.073-.536 1.264-.498.192-1.073-.038-1.265-.536-.191-.498.039-1.073.537-1.264.498-.192 1.072.038 1.264.536"/><path d="M214.332 255.94h16.45v1.935h-16.45zM82.25 356.574c-9.889 0-17.902-8.013-17.902-17.9 0-9.889 8.013-17.902 17.901-17.902s17.901 8.013 17.901 17.901c0 9.841-8.013 17.901-17.9 17.901zm0-34.068c-8.905 0-16.121 7.216-16.121 16.12s7.216 16.12 16.12 16.12 16.12-7.216 16.12-16.12c0-8.857-7.216-16.12-16.12-16.12z"/><path d="M75.476 356.574c-9.888 0-17.902-8.013-17.902-17.9 0-9.889 8.014-17.902 17.902-17.902 9.887 0 17.9 8.013 17.9 17.901.047 9.841-8.013 17.901-17.9 17.901zm0-34.068c-8.904 0-16.12 7.216-16.12 16.12s7.216 16.12 16.12 16.12c8.903 0 16.12-7.216 16.12-16.12.047-8.857-7.217-16.12-16.12-16.12z"/><path d="M77.411 349.801H62.896c-4.005 0-7.257-3.173-7.257-7.081v-8.093c0-3.909 3.252-7.082 7.257-7.082h14.515c4.006 0 7.257 3.173 7.257 7.082v8.093c0 3.908-3.251 7.081-7.257 7.081zm-14.515-20.462c-3.016 0-5.466 2.39-5.466 5.334v8.093c0 2.943 2.45 5.334 5.466 5.334h14.515c3.016 0 5.467-2.391 5.467-5.334v-8.093c0-2.943-2.451-5.334-5.467-5.334H62.896zm208.526 74.65c-6.384 0-11.611-5.228-11.611-11.612s5.227-11.612 11.611-11.612 11.612 5.228 11.612 11.612c0 6.43-5.228 11.612-11.612 11.612zm0-21.466c-5.459 0-9.853 4.441-9.853 9.854 0 5.459 4.44 9.854 9.853 9.854 5.46 0 9.854-4.441 9.854-9.854 0-5.413-4.441-9.854-9.854-9.854z"/><path d="M275.293 403.989c-6.384 0-11.612-5.228-11.612-11.612s5.228-11.612 11.612-11.612 11.612 5.228 11.612 11.612c0 6.43-5.228 11.612-11.612 11.612zm0-21.466c-5.459 0-9.854 4.441-9.854 9.854 0 5.459 4.441 9.854 9.854 9.854 5.412 0 9.854-4.441 9.854-9.854 0-5.413-4.442-9.854-9.854-9.854z"/><path d="M276.26 400.118c-4.267 0-7.74-3.473-7.74-7.741s3.473-7.741 7.74-7.741c4.268 0 7.742 3.473 7.742 7.741s-3.424 7.741-7.741 7.741zm0-13.596a5.866 5.866 0 00-5.855 5.855 5.866 5.866 0 005.856 5.855 5.866 5.866 0 005.855-5.855 5.834 5.834 0 00-5.855-5.855zM84.636 87.099l6.682-6.678 1.258 1.256-6.682 6.678z"/><path d="M84.636 81.678l1.257-1.258 6.683 6.679-1.258 1.256zM99.667 97.248c-1.839 0-3.387-1.5-3.387-3.387s1.5-3.387 3.387-3.387c1.838 0 3.386 1.5 3.386 3.387s-1.5 3.387-3.386 3.387zm0-4.887c-.823 0-1.549.677-1.549 1.548s.678 1.548 1.549 1.548c.822 0 1.548-.677 1.548-1.548 0-.87-.677-1.548-1.548-1.548zm57.867 180.029l-1.26-1.222 22.18-21.496c6.772-6.561 15.831-10.182 25.404-10.182H215.3v1.72h-11.44c-9.107 0-17.699 3.44-24.143 9.684l-22.182 21.496z"/><path d="M152.696 272.39l-1.26-1.222 22.18-21.496c6.772-6.561 15.831-10.182 25.404-10.182h11.441v1.72h-11.44c-9.107 0-17.7 3.44-24.143 9.684l-22.182 21.496zm60.668-6.773h1.935v6.773h-1.935zm-141.275-6.774h1.935v16.45h-1.935zm52.252 14.515h-1.732v-14.382c0-7.594-5.926-13.812-13.266-13.812s-13.266 6.17-13.266 13.812v14.382h-1.732v-14.382c0-8.59 6.701-15.615 14.998-15.615s14.998 6.977 14.998 15.615v14.382z"/><path d="M121.439 273.358h-1.733v-14.382c0-7.594-5.926-13.812-13.266-13.812s-13.266 6.17-13.266 13.812v14.382h-1.732v-14.382c0-8.59 6.701-15.615 14.998-15.615s14.999 6.977 14.999 15.615v14.382z"/><path d="M104.505 266.584c-5.08 0-9.193-3.896-9.193-8.709 0-4.812 4.113-8.708 9.193-8.708 5.08 0 9.192 3.896 9.192 8.708-.048 4.813-4.16 8.71-9.192 8.71zm0-15.63c-4.064 0-7.354 3.117-7.354 6.967 0 3.85 3.29 6.967 7.354 6.967s7.354-3.117 7.354-6.967c-.048-3.85-3.338-6.967-7.354-6.967z"/><path d="M98.894 252.806l1.257-1.257 11.28 11.273-1.256 1.257z"/><path d="M98.894 262.856l11.281-11.274 1.257 1.257-11.281 11.273zM249.167 311.095a6.779 6.779 0 01-6.774-6.773c0-3.737 3.037-6.773 6.774-6.773s6.773 3.036 6.773 6.773a6.778 6.778 0 01-6.773 6.773zm0-11.771a5.004 5.004 0 00-4.999 4.998c0 2.756 2.243 4.998 4.999 4.998s4.998-2.242 4.998-4.998a5.004 5.004 0 00-4.998-4.998z"/><path d="M244.038 301.64l1.258-1.257 8.37 8.364-1.257 1.256z"/><path d="M244.039 308.703l8.37-8.363 1.257 1.255-8.37 8.365zM147.08 361.413c-5.08 0-9.192-3.896-9.192-8.71 0-4.812 4.113-8.708 9.193-8.708 5.08 0 9.192 3.896 9.192 8.709s-4.112 8.709-9.192 8.709zm0-15.63c-4.063 0-7.353 3.117-7.353 6.967 0 3.85 3.29 6.967 7.354 6.967s7.354-3.117 7.354-6.967c0-3.85-3.29-6.967-7.354-6.967z"/><path d="M140.255 347.364l1.257-1.256 11.281 11.273-1.257 1.256z"/><path d="M140.286 357.384l11.281-11.273 1.258 1.257-11.281 11.272zM247.31 236.587a.747.747 0 01-.6-.276l-14.726-14.682a7.3 7.3 0 01-2.17-5.201v-20.575c0-.46.37-.874.877-.874.508 0 .877.368.877.874v20.575c0 1.518.6 2.9 1.662 3.958l14.727 14.682c.323.323.323.875 0 1.243a.915.915 0 01-.647.276z"/><path d="M248.319 232.717a.907.907 0 01-.65-.284l-17.611-18.513c-.325-.378-.325-.945 0-1.276.372-.33.93-.33 1.254 0l17.61 18.514c.326.378.326.945 0 1.275-.139.237-.371.284-.603.284zm.008-3.871a.904.904 0 01-.645-.28l-18.594-19.5c-.322-.374-.322-.935 0-1.262.368-.328.92-.328 1.243 0l18.594 19.5c.322.373.322.934 0 1.262-.184.187-.414.28-.598.28zm1.859-4.838a.77.77 0 01-.62-.285l-20.47-20.438c-.333-.332-.333-.903 0-1.283.333-.333.905-.333 1.286 0l20.47 20.438c.333.332.333.903 0 1.283a.94.94 0 01-.666.285zM26.61 308.193h8.709v1.935H26.61zm225.46 78.378c-1.58 0-2.903-1.324-2.903-2.903 0-1.578 1.324-2.903 2.903-2.903 1.578 0 2.902 1.325 2.902 2.903 0 1.58-1.324 2.903-2.902 2.903zm0-3.87a.967.967 0 10.967.967c0-.56-.407-.967-.967-.967zm-32.9 48.382c-1.579 0-2.903-1.325-2.903-2.903 0-1.58 1.324-2.903 2.903-2.903s2.903 1.324 2.903 2.903a2.87 2.87 0 01-2.903 2.903zm0-3.871c-.51 0-.968.458-.968.968 0 .509.408.967.968.967s.968-.407.968-.967a.967.967 0 00-.968-.968zm-50.317 24.191c-1.579 0-2.903-1.324-2.903-2.903s1.324-2.903 2.903-2.903 2.903 1.324 2.903 2.903-1.324 2.903-2.903 2.903zm0-3.87c-.51 0-.968.458-.968.967 0 .51.458.968.968.968a.967.967 0 00.967-.968c0-.51-.458-.968-.967-.968zm90.958-139.34h8.709v1.935h-8.709zM146.113 426.244c-13.969 0-27.141-2.548-37.032-7.181-10.126-4.726-15.704-11.12-15.704-17.977 0-6.857 5.578-13.251 15.704-17.977 9.89-4.634 23.063-7.182 37.032-7.182 13.97 0 27.142 2.548 37.033 7.182 10.125 4.726 15.704 11.12 15.704 17.977 0 6.857-5.579 13.25-15.704 17.977-9.891 4.633-23.063 7.181-37.033 7.181zm0-48.603c-28.079 0-50.955 10.518-50.955 23.445s22.876 23.444 50.955 23.444c28.08 0 50.955-10.517 50.955-23.444s-22.876-23.445-50.955-23.445z"/><path d="M102.086 402.053a2.916 2.916 0 01-2.903 2.903 2.915 2.915 0 01-2.903-2.903 2.916 2.916 0 012.903-2.903 2.916 2.916 0 012.903 2.903m91.925 0a2.915 2.915 0 01-2.903 2.903 2.915 2.915 0 01-2.902-2.903 2.915 2.915 0 012.902-2.903c1.594.057 2.903 1.31 2.903 2.903M82.48 406.892c-25.775-25.719-34.79-56.45-37.841-77.671-3.287-23.001-.423-40.194-.423-40.381l1.737.28c-.047.188-2.817 17.146.423 39.867 3.005 20.94 11.925 51.25 37.325 76.593l-1.221 1.312z"/><path d="M146.15 323.675l-.234-.095-116.403-35.708h235.136l-118.5 35.803zm-104.76-34.01l104.76 32.123 106.388-32.17H41.391v.047z"/><path d="M145.629 322.707h1.935v22.256h-1.935zm91.99 97.732a.927.927 0 01-.657-.281l-54.648-55.373c-1.784-1.824-2.817-4.256-2.817-6.828v-45.973a.89.89 0 01.892-.889c.516 0 .892.375.892.89v46.019c0 2.104.798 4.068 2.3 5.565l54.695 55.373c.329.327.329.889 0 1.263-.188.14-.422.234-.657.234z"/><path d="M240.527 417.536a.75.75 0 01-.607-.282l-60.178-61.1c-.327-.329-.327-.893 0-1.268.327-.329.887-.329 1.26 0l60.178 61.147c.327.329.327.892 0 1.268-.186.188-.42.235-.653.235zm3.897-3.871c-.24 0-.479-.093-.622-.28L178.78 349.37c-.335-.326-.335-.887 0-1.26.335-.327.909-.327 1.291 0l64.974 64.013c.335.327.335.887 0 1.26a.93.93 0 01-.621.281zm2.875-3.871a.751.751 0 01-.608-.281l-65.013-65.937c-.328-.33-.328-.893 0-1.27.327-.328.888-.328 1.262 0l65.013 65.938c.328.329.328.893 0 1.269a.918.918 0 01-.654.281zm-228.43-61.928c-3.737 0-6.774-3.037-6.774-6.774s3.037-6.773 6.774-6.773 6.773 3.036 6.773 6.773a6.779 6.779 0 01-6.773 6.774zm0-11.819a5.004 5.004 0 00-4.998 4.999 5.004 5.004 0 004.998 4.998 5.004 5.004 0 004.998-4.998 5.004 5.004 0 00-4.998-4.999zm1.935 19.56h1.935v60.961h-1.935zm6.774-60.961h-9.065c-1.942 0-3.515-1.515-3.515-3.387s1.573-3.387 3.515-3.387h9.065v1.694h-9.065c-.971 0-1.757.757-1.757 1.693s.786 1.693 1.757 1.693h9.065v1.694z"/></g></svg>