<svg width="212" height="40" viewBox="0 0 212 40" fill="none" xmlns="http://www.w3.org/2000/svg">
<path d="M19.9997 1.7179L36.1482 35.884H3.85107L19.9997 1.7179Z" fill="#FECD2F"/>
<path fill-rule="evenodd" clip-rule="evenodd" d="M10.4602 31.7672H29.5398L20 11.5835L10.4602 31.7672ZM0 34.1661L16.1486 0H23.8514L40 34.1661L36.1486 40H3.85141L0 34.1661Z" fill="url(#paint0_linear_40_585)"/>
<path d="M56.36 28L66.32 5.05H66.56L76.52 28H71.48L65.12 11.86L68.27 9.7L60.65 28H56.36ZM63.17 20.02H69.8L71.33 23.68H61.82L63.17 20.02ZM79.0487 4.33H83.2487V28H79.0487V4.33ZM91.8041 28.63C90.6241 28.63 89.6341 28.27 88.8341 27.55C88.0341 26.81 87.6141 25.86 87.5741 24.7V14.89H91.7741V23.14C91.8141 23.72 91.9641 24.19 92.2241 24.55C92.4841 24.89 92.9241 25.06 93.5441 25.06C94.1641 25.06 94.6941 24.85 95.1341 24.43C95.5941 24.01 95.9441 23.44 96.1841 22.72C96.4441 21.98 96.5741 21.15 96.5741 20.23V14.89H100.774V28H96.9641L96.6341 25.6L96.6941 25.87C96.3941 26.41 96.0141 26.89 95.5541 27.31C95.0941 27.73 94.5441 28.05 93.9041 28.27C93.2841 28.51 92.5841 28.63 91.8041 28.63ZM108.874 14.89L109.264 18.49L109.174 17.95C109.554 17.17 110.074 16.51 110.734 15.97C111.394 15.41 112.044 14.98 112.684 14.68C113.344 14.38 113.844 14.23 114.184 14.23L113.974 18.43C112.994 18.31 112.154 18.47 111.454 18.91C110.754 19.35 110.214 19.93 109.834 20.65C109.454 21.37 109.264 22.11 109.264 22.87V28H105.094V14.89H108.874ZM122.479 28.36C121.259 28.36 120.149 28.12 119.149 27.64C118.169 27.14 117.389 26.38 116.809 25.36C116.229 24.34 115.939 23.04 115.939 21.46C115.939 19.98 116.239 18.7 116.839 17.62C117.439 16.54 118.229 15.71 119.209 15.13C120.189 14.53 121.229 14.23 122.329 14.23C123.629 14.23 124.609 14.45 125.269 14.89C125.949 15.31 126.509 15.78 126.949 16.3L126.769 16.81L127.159 14.89H131.059V28H126.859V25.15L127.189 26.05C127.149 26.05 127.029 26.17 126.829 26.41C126.629 26.63 126.329 26.9 125.929 27.22C125.549 27.52 125.069 27.78 124.489 28C123.929 28.24 123.259 28.36 122.479 28.36ZM123.679 24.94C124.179 24.94 124.629 24.87 125.029 24.73C125.429 24.57 125.779 24.35 126.079 24.07C126.379 23.77 126.639 23.4 126.859 22.96V19.75C126.699 19.31 126.459 18.94 126.139 18.64C125.819 18.32 125.439 18.08 124.999 17.92C124.559 17.74 124.069 17.65 123.529 17.65C122.929 17.65 122.369 17.81 121.849 18.13C121.349 18.43 120.949 18.85 120.649 19.39C120.349 19.93 120.199 20.55 120.199 21.25C120.199 21.95 120.359 22.58 120.679 23.14C120.999 23.7 121.419 24.14 121.939 24.46C122.479 24.78 123.059 24.94 123.679 24.94ZM141.927 6.31C144.107 6.31 145.817 6.76 147.057 7.66C148.317 8.54 148.947 9.92 148.947 11.8C148.947 12.94 148.687 13.93 148.167 14.77C147.647 15.61 146.917 16.27 145.977 16.75C145.057 17.23 143.967 17.5 142.707 17.56L142.287 16.06C143.747 16.1 145.057 16.36 146.217 16.84C147.377 17.32 148.297 17.99 148.977 18.85C149.657 19.71 149.997 20.73 149.997 21.91C149.997 22.99 149.797 23.92 149.397 24.7C148.997 25.46 148.457 26.09 147.777 26.59C147.097 27.07 146.327 27.43 145.467 27.67C144.607 27.89 143.717 28 142.797 28H136.347V6.31H141.927ZM142.527 15.82C143.727 15.82 144.597 15.49 145.137 14.83C145.677 14.15 145.947 13.33 145.947 12.37C145.947 11.23 145.597 10.4 144.897 9.88C144.197 9.36 143.257 9.1 142.077 9.1H139.257V15.82H142.527ZM142.647 25.3C143.447 25.3 144.177 25.18 144.837 24.94C145.517 24.7 146.047 24.33 146.427 23.83C146.827 23.33 147.027 22.7 147.027 21.94C147.027 21.1 146.797 20.44 146.337 19.96C145.897 19.48 145.327 19.14 144.627 18.94C143.927 18.72 143.207 18.61 142.467 18.61H139.257V25.3H142.647ZM153.121 21.67C153.121 20.43 153.411 19.31 153.991 18.31C154.591 17.31 155.411 16.52 156.451 15.94C157.491 15.36 158.671 15.07 159.991 15.07C161.351 15.07 162.541 15.36 163.561 15.94C164.581 16.52 165.371 17.31 165.931 18.31C166.491 19.31 166.771 20.43 166.771 21.67C166.771 22.91 166.491 24.04 165.931 25.06C165.371 26.06 164.571 26.85 163.531 27.43C162.511 28.01 161.321 28.3 159.961 28.3C158.641 28.3 157.461 28.03 156.421 27.49C155.401 26.93 154.591 26.16 153.991 25.18C153.411 24.18 153.121 23.01 153.121 21.67ZM155.911 21.7C155.911 22.5 156.091 23.23 156.451 23.89C156.811 24.53 157.291 25.04 157.891 25.42C158.511 25.8 159.191 25.99 159.931 25.99C160.711 25.99 161.401 25.8 162.001 25.42C162.621 25.04 163.101 24.53 163.441 23.89C163.781 23.23 163.951 22.5 163.951 21.7C163.951 20.9 163.781 20.18 163.441 19.54C163.101 18.88 162.621 18.36 162.001 17.98C161.401 17.58 160.711 17.38 159.931 17.38C159.171 17.38 158.481 17.58 157.861 17.98C157.261 18.38 156.781 18.91 156.421 19.57C156.081 20.21 155.911 20.92 155.911 21.7ZM169.469 21.67C169.469 20.43 169.759 19.31 170.339 18.31C170.939 17.31 171.759 16.52 172.799 15.94C173.839 15.36 175.019 15.07 176.339 15.07C177.699 15.07 178.889 15.36 179.909 15.94C180.929 16.52 181.719 17.31 182.279 18.31C182.839 19.31 183.119 20.43 183.119 21.67C183.119 22.91 182.839 24.04 182.279 25.06C181.719 26.06 180.919 26.85 179.879 27.43C178.859 28.01 177.669 28.3 176.309 28.3C174.989 28.3 173.809 28.03 172.769 27.49C171.749 26.93 170.939 26.16 170.339 25.18C169.759 24.18 169.469 23.01 169.469 21.67ZM172.259 21.7C172.259 22.5 172.439 23.23 172.799 23.89C173.159 24.53 173.639 25.04 174.239 25.42C174.859 25.8 175.539 25.99 176.279 25.99C177.059 25.99 177.749 25.8 178.349 25.42C178.969 25.04 179.449 24.53 179.789 23.89C180.129 23.23 180.299 22.5 180.299 21.7C180.299 20.9 180.129 20.18 179.789 19.54C179.449 18.88 178.969 18.36 178.349 17.98C177.749 17.58 177.059 17.38 176.279 17.38C175.519 17.38 174.829 17.58 174.209 17.98C173.609 18.38 173.129 18.91 172.769 19.57C172.429 20.21 172.259 20.92 172.259 21.7ZM186.897 28V4.78H189.687V28H186.897ZM192.687 19.75L198.387 28H195.117L190.827 21.31L192.687 19.75ZM188.817 24.04L188.547 21.37L196.077 15.31L197.787 16.78L188.817 24.04ZM205.318 28.24C204.438 28.24 203.578 28.09 202.738 27.79C201.918 27.47 201.238 27 200.698 26.38L201.868 24.76C202.388 25.26 202.918 25.64 203.458 25.9C204.018 26.14 204.568 26.26 205.108 26.26C205.508 26.26 205.878 26.21 206.218 26.11C206.558 26.01 206.828 25.85 207.028 25.63C207.248 25.39 207.358 25.07 207.358 24.67C207.358 24.23 207.208 23.88 206.908 23.62C206.628 23.36 206.258 23.15 205.798 22.99C205.358 22.83 204.888 22.68 204.388 22.54C203.368 22.2 202.588 21.73 202.048 21.13C201.508 20.53 201.238 19.8 201.238 18.94C201.238 18.28 201.398 17.67 201.718 17.11C202.058 16.53 202.548 16.06 203.188 15.7C203.848 15.34 204.658 15.16 205.618 15.16C206.478 15.16 207.248 15.27 207.928 15.49C208.608 15.69 209.248 16.03 209.848 16.51L208.738 18.25C208.378 17.87 207.948 17.59 207.448 17.41C206.948 17.23 206.498 17.13 206.098 17.11C205.758 17.09 205.428 17.14 205.108 17.26C204.808 17.38 204.558 17.55 204.358 17.77C204.158 17.99 204.058 18.25 204.058 18.55C204.058 18.97 204.198 19.31 204.478 19.57C204.758 19.83 205.118 20.04 205.558 20.2C206.018 20.34 206.468 20.49 206.908 20.65C207.528 20.83 208.078 21.07 208.558 21.37C209.038 21.67 209.418 22.04 209.698 22.48C209.998 22.92 210.148 23.47 210.148 24.13C210.148 24.87 209.968 25.56 209.608 26.2C209.268 26.82 208.738 27.32 208.018 27.7C207.318 28.06 206.418 28.24 205.318 28.24Z" fill="black"/>
<defs>
<linearGradient id="paint0_linear_40_585" x1="20" y1="0" x2="20" y2="40" gradientUnits="userSpaceOnUse">
<stop offset="0.677083" stop-color="#FD8325"/>
<stop offset="1" stop-color="#FC6621"/>
</linearGradient>
</defs>
</svg>
