<svg width="18" height="21" viewBox="0 0 18 21" fill="none" xmlns="http://www.w3.org/2000/svg">
<path d="M10.2188 15.1875C10.2188 15.4062 10.375 15.5156 10.6875 15.5156C10.8438 15.5156 10.9531 15.4844 11.0156 15.4219L11.2031 15.1875C11.2656 15.0625 11.2969 14.9688 11.2969 14.9062V12.8906C11.2344 12.7656 11.2031 12.6719 11.2031 12.6094C11.2031 12.5469 11.125 12.4844 10.9688 12.4219C10.8438 12.3281 10.75 12.2812 10.6875 12.2812C10.5938 12.2812 10.5 12.3281 10.4062 12.4219L10.2188 12.6094C10.125 12.7344 10.0781 12.8281 10.0781 12.8906V14.9062C10.1719 15.0312 10.2188 15.125 10.2188 15.1875ZM12.1875 14.2031C12.1875 14.6094 12.1562 14.875 12.0938 15L11.8125 15.6094C11.5938 15.7969 11.4219 15.8906 11.2969 15.8906C11.2344 15.8906 11.125 15.9062 10.9688 15.9375C10.8438 15.9688 10.75 15.9844 10.6875 15.9844C10.4062 15.9844 10.2031 15.9531 10.0781 15.8906C10.0156 15.8594 9.9375 15.8125 9.84375 15.75C9.75 15.6875 9.67188 15.6406 9.60938 15.6094C9.32812 15.4531 9.1875 14.9844 9.1875 14.2031V13.5C9.1875 13.0938 9.21875 12.8281 9.28125 12.7031L9.60938 12.0938C9.79688 11.9062 9.95312 11.8125 10.0781 11.8125C10.1406 11.8125 10.2344 11.7969 10.3594 11.7656C10.5156 11.7344 10.625 11.7188 10.6875 11.7188C10.9688 11.7188 11.1719 11.75 11.2969 11.8125C11.3594 11.8438 11.4375 11.8906 11.5312 11.9531C11.6562 12.0156 11.75 12.0625 11.8125 12.0938C11.875 12.125 11.9688 12.3281 12.0938 12.7031C12.1562 12.8906 12.1875 13.1562 12.1875 13.5V14.2031ZM7.92188 15.9844H6.98438V12.7031L6 12.9844V12.2812L7.78125 11.7188H7.92188V15.9844ZM9 5.01562C11.2188 5.01562 13.1094 5.79688 14.6719 7.35938C16.2344 8.92188 17.0156 10.7969 17.0156 12.9844C17.0156 15.2031 16.2188 17.0938 14.625 18.6562C13.0625 20.2188 11.1875 21 9 21C6.8125 21 4.92188 20.2188 3.32812 18.6562C1.76562 17.0938 0.984375 15.2031 0.984375 12.9844H3C3 14.6406 3.59375 16.0625 4.78125 17.25C5.96875 18.4062 7.375 18.9844 9 18.9844C10.625 18.9844 12.0312 18.4062 13.2188 17.25C14.4062 16.0625 15 14.6406 15 12.9844C15 11.3281 14.4062 9.92188 13.2188 8.76562C12.0312 7.57813 10.625 6.98438 9 6.98438V11.0156L3.98438 6L9 0.984375V5.01562Z" fill="#041833"/>
</svg>
