<svg width="24" height="24" viewBox="0 0 24 24" fill="none" xmlns="http://www.w3.org/2000/svg">
<path d="M18.6875 13.3125V10.6875H13.3125V5.3125H10.6875V10.6875H5.3125V13.3125H10.6875V18.6875H13.3125V13.3125H18.6875ZM21.3125 0C22.0208 0 22.6458 0.270833 23.1875 0.8125C23.7292 1.35417 24 1.97917 24 2.6875V21.3125C24 22.0208 23.7292 22.6458 23.1875 23.1875C22.6458 23.7292 22.0208 24 21.3125 24H2.6875C1.9375 24 1.29167 23.75 0.75 23.25C0.25 22.7083 0 22.0625 0 21.3125V2.6875C0 1.9375 0.25 1.3125 0.75 0.8125C1.29167 0.270833 1.9375 0 2.6875 0H21.3125Z" fill="white"/>
</svg>
