<svg width="28" height="28" viewBox="0 0 28 28" fill="none" xmlns="http://www.w3.org/2000/svg">
<path d="M19.625 22L18.125 15.5625L23.125 11.25L16.5625 10.6875L14 4.6875L11.4375 10.75L4.875 11.25L9.875 15.5625L8.375 22L14 18.625L19.625 22ZM4.5625 4.625C7.1875 2 10.3333 0.6875 14 0.6875C17.6667 0.6875 20.7917 2 23.375 4.625C26 7.20833 27.3125 10.3333 27.3125 14C27.3125 17.6667 26 20.8125 23.375 23.4375C20.7917 26.0208 17.6667 27.3125 14 27.3125C10.3333 27.3125 7.1875 26.0208 4.5625 23.4375C1.97917 20.8125 0.6875 17.6667 0.6875 14C0.6875 10.3333 1.97917 7.20833 4.5625 4.625Z" fill="white"/>
</svg>
