<svg width="32" height="31" viewBox="0 0 32 31" fill="none" xmlns="http://www.w3.org/2000/svg">
<path d="M12.2857 28.9999C12.9958 28.9999 13.5714 28.4243 13.5714 27.7142C13.5714 27.0041 12.9958 26.4285 12.2857 26.4285C11.5756 26.4285 11 27.0041 11 27.7142C11 28.4243 11.5756 28.9999 12.2857 28.9999Z" stroke="#FFCB47" stroke-width="3" stroke-linecap="round" stroke-linejoin="round"/>
<path d="M26.4286 28.9999C27.1387 28.9999 27.7143 28.4243 27.7143 27.7142C27.7143 27.0041 27.1387 26.4285 26.4286 26.4285C25.7185 26.4285 25.1429 27.0041 25.1429 27.7142C25.1429 28.4243 25.7185 28.9999 26.4286 28.9999Z" stroke="#FFCB47" stroke-width="3" stroke-linecap="round" stroke-linejoin="round"/>
<path d="M2 2H7.14286L10.5886 19.2157C10.7061 19.8077 11.0282 20.3394 11.4983 20.7178C11.9684 21.0962 12.5566 21.2973 13.16 21.2857H25.6571C26.2605 21.2973 26.8488 21.0962 27.3189 20.7178C27.789 20.3394 28.111 19.8077 28.2286 19.2157L30.2857 8.42857H8.42857" stroke="#FFCB47" stroke-width="3" stroke-linecap="round" stroke-linejoin="round"/>
</svg>
