<svg width="21" height="22" viewBox="0 0 21 22" fill="none" xmlns="http://www.w3.org/2000/svg">
<path d="M21 1.672C21 1.34387 20.8594 1.06262 20.625 0.828247C20.3906 0.640747 20.1094 0.500122 19.8281 0.500122H1.17188C0.796875 0.500122 0.515625 0.640747 0.328125 0.828247C0.09375 1.06262 0 1.34387 0 1.672V20.3282C0 20.6564 0.09375 20.9376 0.328125 21.172C0.515625 21.4064 0.796875 21.5001 1.17188 21.5001H11.2031V13.3439H8.48438V10.2032H11.2031V7.8595C11.2031 6.547 11.5781 5.51575 12.3281 4.76575C13.0781 4.06262 14.0625 3.68762 15.2812 3.68762C16.2188 3.68762 17.0625 3.7345 17.7188 3.78137V6.64075H16.0312C15.4219 6.64075 15 6.78137 14.7656 7.06262C14.5781 7.297 14.4844 7.672 14.4844 8.18762V10.2032H17.625L17.2031 13.3439H14.4844V21.5001H19.8281C20.1562 21.5001 20.4375 21.4064 20.6719 21.172C20.8594 20.9376 21 20.6564 21 20.3282V1.672Z" fill="#FFCB47"/>
</svg>
