<svg width="21" height="22" viewBox="0 0 21 22" fill="none" xmlns="http://www.w3.org/2000/svg">
<path d="M10.5 5.6095C11.4375 5.6095 12.3281 5.89075 13.1719 6.3595C14.0156 6.82825 14.6719 7.4845 15.1406 8.32825C15.6094 9.172 15.8906 10.0626 15.8906 11.0001C15.8906 11.9845 15.6094 12.8751 15.1406 13.7189C14.6719 14.5626 14.0156 15.2189 13.1719 15.6876C12.3281 16.1564 11.4375 16.3907 10.5 16.3907C9.51562 16.3907 8.625 16.1564 7.78125 15.6876C6.9375 15.2189 6.28125 14.5626 5.8125 13.7189C5.34375 12.8751 5.10938 11.9845 5.10938 11.0001C5.10938 10.0626 5.34375 9.172 5.8125 8.32825C6.28125 7.4845 6.9375 6.82825 7.78125 6.3595C8.625 5.89075 9.51562 5.6095 10.5 5.6095ZM10.5 14.5157C11.4375 14.5157 12.2812 14.1876 12.9844 13.4845C13.6406 12.8282 14.0156 11.9845 14.0156 11.0001C14.0156 10.0626 13.6406 9.21887 12.9844 8.51575C12.2812 7.8595 11.4375 7.4845 10.5 7.4845C9.51562 7.4845 8.67188 7.8595 8.01562 8.51575C7.3125 9.21887 6.98438 10.0626 6.98438 11.0001C6.98438 11.9845 7.3125 12.8282 8.01562 13.4845C8.67188 14.1876 9.51562 14.5157 10.5 14.5157ZM17.3906 5.37512C17.3906 5.047 17.25 4.76575 17.0156 4.4845C16.7344 4.25012 16.4531 4.1095 16.125 4.1095C15.75 4.1095 15.4688 4.25012 15.2344 4.4845C14.9531 4.76575 14.8594 5.047 14.8594 5.37512C14.8594 5.75012 14.9531 6.03137 15.2344 6.26575C15.4688 6.547 15.75 6.64075 16.125 6.64075C16.4531 6.64075 16.7344 6.547 16.9688 6.26575C17.2031 6.03137 17.3438 5.75012 17.3906 5.37512ZM20.9531 6.64075C20.9531 7.53137 21 8.9845 21 11.0001C21 13.0626 20.9531 14.5157 20.9062 15.4064C20.8594 16.297 20.7188 17.047 20.5312 17.7032C20.25 18.5001 19.7812 19.2032 19.2188 19.7657C18.6562 20.3282 17.9531 20.7501 17.2031 21.0314C16.5469 21.2657 15.75 21.4064 14.8594 21.4532C13.9688 21.5001 12.5156 21.5001 10.5 21.5001C8.4375 21.5001 6.98438 21.5001 6.09375 21.4532C5.20312 21.4064 4.45312 21.2657 3.79688 20.9845C3 20.7501 2.29688 20.3282 1.73438 19.7657C1.17188 19.2032 0.75 18.5001 0.46875 17.7032C0.234375 17.047 0.09375 16.297 0.046875 15.4064C0 14.5157 0 13.0626 0 11.0001C0 8.9845 0 7.53137 0.046875 6.64075C0.09375 5.75012 0.234375 4.95325 0.46875 4.297C0.75 3.547 1.17188 2.84387 1.73438 2.28137C2.29688 1.71887 3 1.25012 3.79688 0.968872C4.45312 0.781372 5.20312 0.640747 6.09375 0.593872C6.98438 0.546997 8.4375 0.500122 10.5 0.500122C12.5156 0.500122 13.9688 0.546997 14.8594 0.593872C15.75 0.640747 16.5469 0.781372 17.2031 0.968872C17.9531 1.25012 18.6562 1.71887 19.2188 2.28137C19.7812 2.84387 20.25 3.547 20.5312 4.297C20.7188 4.95325 20.8594 5.75012 20.9531 6.64075ZM18.7031 17.1876C18.8906 16.672 18.9844 15.8282 19.0781 14.6564C19.0781 14.0001 19.125 13.0157 19.125 11.7501V10.2501C19.125 8.9845 19.0781 8.00012 19.0781 7.34387C18.9844 6.172 18.8906 5.32825 18.7031 4.81262C18.3281 3.87512 17.625 3.172 16.6875 2.797C16.1719 2.6095 15.3281 2.51575 14.1562 2.422C13.4531 2.422 12.4688 2.37512 11.25 2.37512H9.75C8.48438 2.37512 7.5 2.422 6.84375 2.422C5.67188 2.51575 4.82812 2.6095 4.3125 2.797C3.32812 3.172 2.67188 3.87512 2.29688 4.81262C2.10938 5.32825 1.96875 6.172 1.92188 7.34387C1.875 8.047 1.875 9.03137 1.875 10.2501V11.7501C1.875 13.0157 1.875 14.0001 1.92188 14.6564C1.96875 15.8282 2.10938 16.672 2.29688 17.1876C2.67188 18.172 3.375 18.8282 4.3125 19.2032C4.82812 19.3907 5.67188 19.5314 6.84375 19.5782C7.5 19.6251 8.48438 19.6251 9.75 19.6251H11.25C12.5156 19.6251 13.5 19.6251 14.1562 19.5782C15.3281 19.5314 16.1719 19.3907 16.6875 19.2032C17.625 18.8282 18.3281 18.1251 18.7031 17.1876Z" fill="#FFCB47"/>
</svg>
