<svg width="24" height="20" viewBox="0 0 24 20" fill="none" xmlns="http://www.w3.org/2000/svg">
<path d="M21.5156 5.12512C22.4531 4.422 23.2969 3.57825 24 2.547C23.0625 2.96887 22.125 3.25012 21.1875 3.34387C22.2188 2.68762 22.9688 1.797 23.3438 0.625122C22.3594 1.18762 21.3281 1.6095 20.2031 1.797C19.7344 1.32825 19.1719 0.953247 18.5625 0.671997C17.9531 0.390747 17.2969 0.250122 16.5938 0.250122C15.7031 0.250122 14.9062 0.484497 14.1562 0.906372C13.4062 1.37512 12.7969 1.9845 12.375 2.7345C11.9062 3.4845 11.7188 4.32825 11.7188 5.172C11.7188 5.547 11.7188 5.922 11.8125 6.297C9.79688 6.20325 7.92188 5.7345 6.14062 4.797C4.35938 3.90637 2.90625 2.68762 1.6875 1.14075C1.21875 1.93762 0.984375 2.78137 0.984375 3.62512C0.984375 4.46887 1.17188 5.26575 1.59375 5.96887C1.96875 6.71887 2.53125 7.28137 3.1875 7.75012C2.39062 7.75012 1.64062 7.51575 0.984375 7.09387V7.18762C0.984375 8.3595 1.35938 9.39075 2.10938 10.2814C2.85938 11.2189 3.79688 11.7814 4.92188 12.0157C4.45312 12.1095 4.03125 12.1564 3.60938 12.1564C3.32812 12.1564 3 12.1564 2.71875 12.1095C3 13.0939 3.5625 13.8907 4.40625 14.547C5.25 15.2032 6.1875 15.4845 7.3125 15.4845C5.48438 16.8907 3.42188 17.5939 1.17188 17.5939C0.703125 17.5939 0.328125 17.5939 0 17.547C2.25 19.047 4.78125 19.7501 7.54688 19.7501C10.4062 19.7501 12.9375 19.047 15.1875 17.547C17.2031 16.2345 18.7969 14.5001 19.9219 12.2501C21 10.1876 21.5625 7.9845 21.5625 5.7345C21.5625 5.45325 21.5156 5.26575 21.5156 5.12512Z" fill="#FFCB47"/>
</svg>
