<svg width="307" height="868" viewBox="0 0 307 868" fill="none" xmlns="http://www.w3.org/2000/svg">
<path fill-rule="evenodd" clip-rule="evenodd" d="M490.914 -349.488C584.816 -409.839 706.328 -326.147 812.445 -291.44C901.841 -262.202 987.671 -228.371 1056.69 -164.445C1128.51 -97.9233 1182.46 -16.526 1210.51 77.2671C1242.23 183.339 1270.83 299.816 1225.74 400.899C1179.65 504.226 1082.3 590.001 971.538 612.99C868.06 634.466 782.585 531.577 678.273 514.525C573.351 497.373 457.989 569.47 367.155 514.189C271.38 455.901 199.872 339.625 207.041 227.736C214.06 118.198 353.437 70.9165 401.868 -27.5613C452.231 -129.969 394.927 -287.797 490.914 -349.488Z" fill="#FFCB47"/>
</svg>
