<svg width="128" height="655" viewBox="0 0 128 655" fill="none" xmlns="http://www.w3.org/2000/svg">
<path fill-rule="evenodd" clip-rule="evenodd" d="M323.088 24.3681C391.238 7.40525 466.732 38.2578 519.647 84.4336C569.195 127.672 566.593 202.211 594.902 261.568C626.331 327.464 710.768 379.555 694.328 450.688C677.95 521.549 578.855 530.296 522.242 575.951C466.714 620.731 437.876 715.657 366.544 715.025C294.233 714.385 268.852 614.467 209.482 573.18C154.196 534.732 61.7562 544.997 33.8938 483.69C6.15477 422.656 53.538 354.085 82.4091 293.577C106.253 243.605 147.704 209.105 184.608 167.827C230.017 117.034 256.974 40.8242 323.088 24.3681Z" fill="#FFCB47"/>
</svg>
